<?xml version="1.0" encoding="utf-8"?>
<!-- Generator: Adobe Illustrator 22.1.0, SVG Export Plug-In . SVG Version: 6.00 Build 0)  -->
<svg version="1.1" id="Camada_1" xmlns="http://www.w3.org/2000/svg" xmlns:xlink="http://www.w3.org/1999/xlink" x="0px" y="0px"
	 viewBox="0 0 200 200" style="enable-background:new 0 0 200 200;" xml:space="preserve">
<style type="text/css">
	.st0{fill:#393231;}
	.st1{fill:#FFD985;}
	.st2{fill:#35783C;}
	.st3{fill:#FFB839;}
	.st4{opacity:0.25;fill:#FFFFFF;enable-background:new    ;}
	.st5{fill:#207245;}
	.st6{fill:#FFFFFF;}
</style>
<g>
	<ellipse class="st0" cx="100" cy="183.3" rx="44.5" ry="13.5"/>
	<path class="st1" d="M144.5,156.8c0,24.6-19.9,30.1-44.5,30.1s-44.5-5.5-44.5-30.1S100,98,100,98S144.5,132.3,144.5,156.8z"/>
	<path class="st2" d="M117.8,167.3c-0.1-0.3-0.3-0.6-0.5-0.7c-0.3-0.2-0.6-0.3-1.2-0.3c-0.5,0-0.9-0.1-1.2-0.2
		c-1-0.3-1.6-0.8-1.9-1.8c-0.2-0.6-0.1-1.2,0.2-1.7s0.7-0.9,1.4-1.1l-0.3-1.2l0.9-0.2l0.3,1.3c0.7-0.1,1.3,0.1,1.7,0.5
		s0.8,0.9,1,1.7l-1.4,0.3c-0.1-0.5-0.3-0.8-0.6-1.1s-0.6-0.3-1-0.2s-0.6,0.3-0.8,0.5s-0.2,0.6-0.1,0.9s0.3,0.6,0.5,0.7
		s0.6,0.3,1.2,0.3c0.5,0.1,1,0.1,1.3,0.2s0.6,0.2,0.8,0.3s0.4,0.3,0.6,0.6c0.2,0.2,0.3,0.5,0.4,0.9c0.2,0.6,0.1,1.2-0.2,1.7
		s-0.8,0.9-1.5,1.1l0.3,1.1l-0.9,0.2l-0.3-1.1c-0.8,0.1-1.4,0-1.9-0.4s-0.9-0.9-1.1-1.7l1.4-0.4c0.1,0.5,0.3,0.8,0.6,1
		s0.7,0.2,1.1,0.1s0.7-0.3,0.9-0.6C117.8,168,117.9,167.7,117.8,167.3L117.8,167.3z"/>
	<path class="st2" d="M96.9,135.4c0-0.2-0.1-0.3-0.2-0.5s-0.3-0.2-0.6-0.3s-0.5-0.2-0.7-0.2c-0.5-0.3-0.8-0.7-0.8-1.2
		c0-0.4,0.1-0.7,0.3-0.9s0.5-0.4,0.9-0.5v-0.7h0.5v0.7c0.4,0,0.7,0.2,0.9,0.5s0.3,0.6,0.4,1h-0.8c0-0.3-0.1-0.5-0.2-0.6
		c-0.1-0.2-0.3-0.2-0.5-0.2s-0.4,0.1-0.5,0.2s-0.2,0.3-0.2,0.5s0.1,0.3,0.2,0.5s0.3,0.2,0.6,0.3s0.5,0.2,0.7,0.3s0.3,0.2,0.4,0.3
		s0.2,0.2,0.3,0.4s0.1,0.3,0.1,0.5c0,0.4-0.1,0.7-0.3,0.9s-0.5,0.4-0.9,0.4v0.6H96v-0.6c-0.4,0-0.8-0.2-1-0.4
		c-0.2-0.3-0.4-0.6-0.4-1h0.8c0,0.3,0.1,0.5,0.2,0.6s0.3,0.2,0.6,0.2s0.4-0.1,0.6-0.2C96.9,135.8,96.9,135.6,96.9,135.4z"/>
	<path class="st2" d="M98.7,114.8c0.1-0.2,0.1-0.4,0-0.6s-0.3-0.4-0.5-0.6c-0.3-0.2-0.5-0.4-0.6-0.5c-0.4-0.5-0.6-1-0.4-1.6
		c0.1-0.4,0.4-0.7,0.7-0.8c0.3-0.2,0.7-0.2,1.1-0.1l0.3-0.8l0.6,0.2l-0.3,0.8c0.4,0.2,0.6,0.5,0.8,0.8s0.1,0.8,0,1.2l-0.8-0.3
		c0.1-0.3,0.1-0.5,0-0.8c-0.1-0.2-0.2-0.4-0.5-0.4c-0.2-0.1-0.4-0.1-0.6,0s-0.3,0.2-0.4,0.5c-0.1,0.2-0.1,0.4,0,0.6s0.3,0.4,0.5,0.6
		c0.3,0.2,0.5,0.4,0.6,0.5c0.1,0.2,0.2,0.3,0.3,0.5s0.1,0.3,0.1,0.5s0,0.4-0.1,0.6c-0.1,0.4-0.4,0.7-0.7,0.8
		c-0.3,0.2-0.7,0.2-1.2,0.1l-0.2,0.7l-0.6-0.2l0.2-0.7c-0.4-0.2-0.7-0.5-0.9-0.9s-0.2-0.8,0-1.2L97,114c-0.1,0.3-0.1,0.5,0,0.8
		c0.1,0.2,0.3,0.4,0.5,0.5c0.3,0.1,0.5,0.1,0.7,0C98.5,115.1,98.6,115,98.7,114.8z"/>
	<path class="st1" d="M55.5,43.2c0-24.6,19.9-30.1,44.5-30.1s44.5,5.5,44.5,30.1S100,102,100,102S55.5,67.7,55.5,43.2z"/>
	<path class="st2" d="M109.7,148.5c0-0.2-0.1-0.4-0.2-0.5s-0.4-0.2-0.7-0.3s-0.5-0.2-0.7-0.2c-0.6-0.3-0.9-0.7-0.9-1.3
		c0-0.4,0.1-0.7,0.3-1s0.5-0.4,0.9-0.5l-0.1-0.8h0.6l0.1,0.8c0.4,0,0.7,0.2,1,0.5c0.2,0.3,0.4,0.6,0.4,1.1l-0.9,0.1
		c0-0.3-0.1-0.5-0.3-0.7c-0.1-0.2-0.3-0.2-0.6-0.2c-0.2,0-0.4,0.1-0.5,0.2s-0.2,0.3-0.2,0.5s0.1,0.4,0.2,0.5s0.4,0.2,0.7,0.3
		s0.6,0.2,0.7,0.3c0.2,0.1,0.3,0.2,0.5,0.3c0.1,0.1,0.2,0.2,0.3,0.4s0.1,0.3,0.1,0.6c0,0.4-0.1,0.7-0.3,1s-0.6,0.4-1,0.5v0.7h-0.6
		v-0.7c-0.5,0-0.8-0.2-1.1-0.4s-0.4-0.6-0.5-1.1l0.9-0.1c0,0.3,0.1,0.5,0.3,0.7s0.4,0.2,0.7,0.2s0.5-0.1,0.6-0.2
		S109.8,148.7,109.7,148.5L109.7,148.5z"/>
	<path class="st3" d="M129.3,182.1c-26-18.4-28.2-82.1-28.2-82.1h-2.2c0,0,0.4,64.5-27.5,82.4c7.7,3.4,17.7,4.4,28.6,4.4
		C111.2,186.9,121.5,185.7,129.3,182.1z"/>
	<path class="st3" d="M100,43.2c-23.7-10.1-42.2-0.9-44.5-0.1c-0.1,21.5,34.1,50.5,42.6,57.4c1.1,0.9,2.7,0.9,3.8,0
		c8.4-6.8,42.5-35.8,42.6-57.3C142.2,44.1,122.8,52.9,100,43.2z"/>
	<path class="st4" d="M92.2,13.3c-7.8,0.5-15,1.7-20.8,4.2C51.2,58.6,100,102,100,102C75.4,54,84,26.2,92.2,13.3z"/>
	<ellipse class="st0" cx="100" cy="16.7" rx="44.5" ry="13.5"/>
	<path class="st2" d="M101.4,163.9c0.1-0.3,0-0.6-0.2-0.8s-0.5-0.5-0.9-0.7s-0.8-0.5-1-0.6c-0.8-0.6-1.1-1.4-1-2.3
		c0.1-0.6,0.4-1.1,0.8-1.4s1-0.5,1.7-0.5l0.2-1.2l0.9,0.1l-0.2,1.2c0.6,0.2,1.1,0.6,1.4,1.1s0.4,1.1,0.2,1.9l-1.4-0.2
		c0.1-0.5,0-0.9-0.1-1.2c-0.2-0.3-0.4-0.5-0.8-0.6s-0.7,0-0.9,0.2s-0.4,0.4-0.4,0.8c-0.1,0.3,0,0.6,0.2,0.8s0.5,0.5,0.9,0.7
		c0.5,0.3,0.8,0.5,1.1,0.7s0.5,0.4,0.6,0.6c0.2,0.2,0.3,0.5,0.3,0.7c0.1,0.3,0.1,0.6,0,0.9c-0.1,0.6-0.4,1.1-0.8,1.5
		c-0.5,0.3-1,0.5-1.7,0.4l-0.2,1.1l-0.9-0.1l0.2-1.1c-0.7-0.2-1.3-0.6-1.6-1.1s-0.4-1.2-0.3-1.9l1.4,0.2c-0.1,0.5,0,0.9,0.2,1.2
		s0.5,0.5,0.9,0.6s0.8,0,1-0.1S101.4,164.2,101.4,163.9L101.4,163.9z"/>
	<path class="st2" d="M87.8,174.4c-0.1-0.4-0.3-0.7-0.6-0.9s-0.8-0.3-1.4-0.4s-1.1-0.1-1.5-0.2c-1.2-0.3-2-1-2.3-2.1
		c-0.2-0.8-0.1-1.4,0.2-2.1c0.3-0.6,0.9-1.1,1.7-1.4l-0.4-1.5l1.1-0.3L85,167c0.8-0.1,1.5,0.1,2.1,0.5c0.6,0.5,1,1.1,1.2,2l-1.7,0.4
		c-0.1-0.6-0.4-1-0.7-1.3s-0.7-0.3-1.2-0.2c-0.4,0.1-0.8,0.3-0.9,0.6c-0.2,0.3-0.2,0.7-0.1,1.1s0.3,0.7,0.6,0.9s0.8,0.3,1.4,0.4
		s1.2,0.2,1.5,0.2c0.4,0.1,0.7,0.2,1,0.4s0.5,0.4,0.7,0.7s0.4,0.6,0.5,1c0.2,0.8,0.1,1.5-0.2,2.1c-0.4,0.6-0.9,1.1-1.8,1.4l0.3,1.3
		l-1.1,0.3l-0.3-1.3c-0.9,0.1-1.7,0-2.3-0.4s-1.1-1.1-1.3-2l1.7-0.4c0.1,0.6,0.4,1,0.8,1.2s0.8,0.3,1.4,0.2c0.5-0.1,0.9-0.4,1.1-0.7
		C87.8,175.2,87.9,174.8,87.8,174.4L87.8,174.4z"/>
	<path class="st2" d="M108.4,180.8c0.2-0.3,0.2-0.6,0.2-0.9c-0.1-0.3-0.3-0.7-0.6-1.1s-0.6-0.8-0.7-1c-0.5-0.9-0.5-1.8,0-2.6
		c0.4-0.6,0.8-0.9,1.4-1s1.2-0.1,1.8,0.3l0.7-1.1l0.8,0.5l-0.7,1.1c0.5,0.5,0.8,1,0.9,1.6s-0.1,1.2-0.6,1.9l-1.2-0.8
		c0.3-0.4,0.4-0.8,0.4-1.2s-0.2-0.6-0.5-0.9c-0.3-0.2-0.6-0.3-0.9-0.2s-0.5,0.2-0.8,0.6c-0.2,0.3-0.2,0.6-0.2,0.9
		c0.1,0.3,0.3,0.7,0.6,1.1s0.6,0.8,0.7,1.1c0.2,0.3,0.3,0.6,0.3,0.9c0.1,0.3,0.1,0.6,0,0.8s-0.2,0.6-0.4,0.9c-0.4,0.6-0.8,0.9-1.4,1
		s-1.2,0-1.8-0.3l-0.6,1l-0.8-0.5l0.6-1c-0.6-0.5-1-1.1-1.1-1.7s0.1-1.3,0.5-1.9l1.2,0.8c-0.3,0.4-0.4,0.8-0.3,1.2s0.3,0.7,0.7,0.9
		s0.7,0.3,1,0.3C107.9,181.3,108.2,181.1,108.4,180.8L108.4,180.8z"/>
	<path class="st2" d="M105.8,128.3c-0.1-0.2-0.2-0.4-0.4-0.5s-0.5-0.2-0.9-0.2s-0.7,0-0.9-0.1c-0.8-0.1-1.2-0.6-1.4-1.2
		c-0.1-0.5-0.1-0.9,0.1-1.3s0.5-0.7,1-0.9l-0.3-0.9l0.7-0.2l0.3,0.9c0.5-0.1,0.9,0,1.3,0.3s0.6,0.7,0.8,1.2l-1,0.3
		c-0.1-0.3-0.3-0.6-0.5-0.8s-0.5-0.2-0.7-0.1c-0.3,0.1-0.5,0.2-0.6,0.4s-0.1,0.4,0,0.7c0.1,0.2,0.2,0.4,0.4,0.5s0.5,0.2,0.9,0.2
		s0.7,0.1,0.9,0.1s0.4,0.1,0.6,0.2s0.3,0.2,0.5,0.4l0.3,0.6c0.1,0.5,0.1,0.9-0.1,1.3s-0.5,0.7-1,0.9l0.2,0.8l-0.7,0.2l-0.2-0.8
		c-0.6,0.1-1.1,0-1.4-0.2c-0.4-0.2-0.7-0.6-0.8-1.2l1-0.3c0.1,0.3,0.3,0.6,0.5,0.7s0.5,0.2,0.8,0.1s0.5-0.2,0.7-0.5
		C105.8,128.7,105.9,128.5,105.8,128.3L105.8,128.3z"/>
	<path class="st2" d="M92.6,150.7c0.1-0.3,0.2-0.5,0.1-0.8s-0.3-0.6-0.6-0.9c-0.3-0.4-0.6-0.7-0.7-0.9c-0.5-0.8-0.6-1.6-0.2-2.4
		c0.3-0.5,0.7-0.9,1.2-1.1s1-0.1,1.6,0.1l0.6-1l0.8,0.4l-0.6,1.1c0.5,0.4,0.8,0.8,0.9,1.4s0,1.1-0.4,1.8l-1.2-0.6
		c0.2-0.4,0.3-0.8,0.2-1.1s-0.2-0.6-0.6-0.7c-0.3-0.2-0.6-0.2-0.9-0.1s-0.5,0.3-0.6,0.6s-0.2,0.5-0.1,0.8s0.3,0.6,0.6,0.9
		s0.6,0.7,0.7,0.9c0.2,0.3,0.3,0.5,0.4,0.8s0.1,0.5,0.1,0.8s-0.1,0.5-0.3,0.8c-0.3,0.5-0.7,0.9-1.2,1c-0.5,0.2-1.1,0.1-1.7-0.1
		l-0.5,0.9l-0.8-0.4l0.5-0.9c-0.6-0.4-1-0.9-1.1-1.5s0-1.2,0.3-1.8l1.2,0.6c-0.2,0.4-0.3,0.8-0.2,1.1s0.3,0.6,0.7,0.8s0.7,0.3,1,0.2
		S92.4,151,92.6,150.7L92.6,150.7z"/>
	<path class="st2" d="M102.3,140.2c0-0.2-0.1-0.4-0.2-0.5s-0.4-0.2-0.7-0.3s-0.5-0.2-0.7-0.3c-0.6-0.3-0.9-0.7-0.9-1.3
		c0-0.4,0.1-0.7,0.3-1s0.6-0.4,1-0.5v-0.8h0.6v0.8c0.4,0,0.7,0.2,1,0.5c0.2,0.3,0.4,0.7,0.4,1.1h-0.9c0-0.3-0.1-0.5-0.2-0.7
		s-0.3-0.2-0.6-0.2c-0.2,0-0.4,0.1-0.5,0.2s-0.2,0.3-0.2,0.5s0.1,0.4,0.2,0.5s0.4,0.2,0.7,0.3s0.6,0.2,0.7,0.3
		c0.2,0.1,0.3,0.2,0.5,0.3s0.2,0.3,0.3,0.4c0.1,0.2,0.1,0.3,0.1,0.6c0,0.4-0.1,0.7-0.3,1s-0.6,0.4-1,0.5v0.7h-0.6v-0.7
		c-0.5,0-0.8-0.2-1.1-0.5s-0.4-0.7-0.4-1.1h0.9c0,0.3,0.1,0.5,0.3,0.7s0.4,0.2,0.7,0.2s0.5-0.1,0.6-0.2
		C102.3,140.7,102.3,140.2,102.3,140.2z"/>
</g>
<path class="st5" d="M151.8,145.2h3.7v5c6.3,0,12.5,0,18.8,0c1.1,0,2.2,0,3.1,0.6c0.6,0.9,0.6,2.1,0.6,3.2c0,10.8,0,21.7,0,32.5
	c0,1.8,0.2,3.7-0.2,5.5c-0.2,1.3-1.8,1.3-2.9,1.4c-6.5,0-12.9,0-19.4,0v5.6h-3.9c-9.5-1.7-19.1-3.3-28.6-5v-43.7
	C132.6,148.5,142.2,146.9,151.8,145.2z"/>
<path class="st6" d="M155.5,152.1h20.6v39.3h-20.6v-3.7h5v-4.4h-5v-2.5h5v-4.4h-5v-2.5h5v-4.4h-5V167h5v-4.4h-5v-2.5h5v-4.4h-5
	V152.1z"/>
<path class="st5" d="M163,155.8h8.7v4.4H163V155.8z"/>
<path class="st6" d="M141.5,161.6c1.4-0.1,2.8-0.2,4.2-0.3c-1.7,3.4-3.3,6.8-5,10.2c1.7,3.5,3.5,7,5.2,10.5c-1.5-0.1-3-0.2-4.5-0.3
	c-1.1-2.6-2.4-5.1-3.1-7.8c-0.8,2.5-2.1,4.9-3,7.4c-1.4,0-2.7-0.1-4.1-0.1c1.6-3.1,3.2-6.3,4.8-9.4c-1.4-3.2-2.9-6.4-4.4-9.6
	c1.4-0.1,2.7-0.2,4.1-0.2c0.9,2.4,1.9,4.9,2.7,7.4C139.2,166.7,140.5,164.2,141.5,161.6L141.5,161.6z"/>
<path class="st5" d="M163,162.7h8.7v4.4H163V162.7z M163,169.5h8.7v4.4H163V169.5z M163,176.4h8.7v4.4H163V176.4z M163,183.3h8.7
	v4.4H163V183.3z"/>
</svg>
