<?xml version="1.0" encoding="utf-8"?>
<!-- Generator: Adobe Illustrator 22.1.0, SVG Export Plug-In . SVG Version: 6.00 Build 0)  -->
<svg version="1.1" id="Camada_1" xmlns="http://www.w3.org/2000/svg" xmlns:xlink="http://www.w3.org/1999/xlink" x="0px" y="0px"
	 viewBox="0 0 250 250" style="enable-background:new 0 0 250 250;" xml:space="preserve">
<style type="text/css">
	.st0{fill:#008080;opacity:0.3;}
</style>
<g>
	<polygon class="st0" points="250,250 250,249.3 249.3,250 	"/>
	<polygon class="st0" points="231.5,250 250,231.5 250,230.1 230.1,250 	"/>
	<polygon class="st0" points="212.2,250 250,212.2 250,210.8 210.8,250 	"/>
	<polygon class="st0" points="193,250 250,193 250,191.6 191.6,250 	"/>
	<polygon class="st0" points="173.8,250 250,173.8 250,172.4 172.4,250 	"/>
	<polygon class="st0" points="154.6,250 250,154.6 250,153.1 153.1,250 	"/>
	<polygon class="st0" points="135.3,250 250,135.3 250,133.9 133.9,250 	"/>
	<polygon class="st0" points="116.1,250 250,116.1 250,114.7 114.7,250 	"/>
	<polygon class="st0" points="96.9,250 250,96.9 250,95.4 95.4,250 	"/>
	<polygon class="st0" points="77.6,250 250,77.6 250,76.2 76.2,250 	"/>
	<polygon class="st0" points="58.4,250 250,58.4 250,57 57,250 	"/>
	<polygon class="st0" points="39.2,250 250,39.2 250,37.8 37.8,250 	"/>
	<polygon class="st0" points="19.9,250 250,19.9 250,18.5 18.5,250 	"/>
	<polygon class="st0" points="250,0.7 250,0 249.3,0 0,249.3 0,250 0.7,250 	"/>
	<polygon class="st0" points="230.1,0 0,230.1 0,231.5 231.5,0 	"/>
	<polygon class="st0" points="210.8,0 0,210.8 0,212.2 212.2,0 	"/>
	<polygon class="st0" points="191.6,0 0,191.6 0,193 193,0 	"/>
	<polygon class="st0" points="172.4,0 0,172.4 0,173.8 173.8,0 	"/>
	<polygon class="st0" points="153.1,0 0,153.1 0,154.6 154.6,0 	"/>
	<polygon class="st0" points="133.9,0 0,133.9 0,135.3 135.3,0 	"/>
	<polygon class="st0" points="114.7,0 0,114.7 0,116.1 116.1,0 	"/>
	<polygon class="st0" points="95.4,0 0,95.4 0,96.9 96.9,0 	"/>
	<polygon class="st0" points="76.2,0 0,76.2 0,77.6 77.6,0 	"/>
	<polygon class="st0" points="57,0 0,57 0,58.4 58.4,0 	"/>
	<polygon class="st0" points="37.8,0 0,37.8 0,39.2 39.2,0 	"/>
	<polygon class="st0" points="18.5,0 0,18.5 0,19.9 19.9,0 	"/>
	<polygon class="st0" points="0,0 0,0.7 0.7,0 	"/>
</g>
</svg>
