<?xml version="1.0" encoding="utf-8"?>
<!-- Generator: Adobe Illustrator 22.1.0, SVG Export Plug-In . SVG Version: 6.00 Build 0)  -->
<svg version="1.1" id="Camada_1" xmlns="http://www.w3.org/2000/svg" xmlns:xlink="http://www.w3.org/1999/xlink" x="0px" y="0px"
	 viewBox="0 0 1000 1000" style="enable-background:new 0 0 1000 1000;" xml:space="preserve">
<style type="text/css">
	.st0{fill:#DBE0E8;}
	.st1{fill:#409CBC;}
	.st2{fill:#FFFFFF;}
	.st3{fill:#4BB1E0;}
	.st4{fill:#82C7E6;}
	.st5{fill:#F6C500;}
	.st6{fill:#207245;}
</style>
<g>
	<path class="st0" d="M599.6,507.6h284V298.5c0-41.8-33.9-75.7-75.7-75.7H107.2c-41.8,0-75.7,33.9-75.7,75.7v418.3
		c0,41.8,33.9,75.7,75.7,75.7h492.4V507.6z"/>
	<path class="st1" d="M456.7,383.1c0,6.1-4.8,9.1-14.3,9.1c-1.9,0-4.5-0.3-8-1c1,4.8,1.8,10,2.4,15.9c0.6,5.9,1,10.7,1,14.4
		c0,8.3-1.4,14.7-4,19.1c-2.6,4.5-6.2,6.6-10.7,6.6c-5.6,0-9.4-3.9-11.9-11.8c-2.4-7.9-3.6-19.7-3.6-35.7c0-14.9,1.6-29.9,4.8-45.1
		c3.1-15.3,7.6-27.9,13.2-37.8c5.6-10,11.7-14.9,18.4-14.9c3.6,0,6.5,1.6,8.6,4.8c2,3.2,3.1,7.6,3.1,13.1
		c0,18.2-10.8,37.9-32.6,59.2c-0.8,7.6-1.1,14.2-1.1,19.9c0,8,0.3,16.2,0.8,24.5c0.5,8.4,1.5,12.6,2.7,12.6c2.3,0,3.5-4,3.5-12
		c0-6-0.4-11.9-1.2-17.5c-0.8-5.7-1.9-11.5-3.3-17.8c-0.1-1,0.2-2.3,1-3.8c0.7-1.5,1.7-2.9,2.7-4s2-1.7,2.9-1.7
		c1.5,0,3.4,0.1,5.6,0.2c0.7,0.1,1.5,0.2,2.4,0.2c3.1,0,6.6-0.3,10.3-0.8c0.6-0.1,1.3-0.2,1.9-0.2c0.7-0.1,1.4-0.2,2.1-0.2
		C455.5,378.2,456.7,379.8,456.7,383.1L456.7,383.1z M436.6,320.3c-2,4.7-4,10.9-6.1,18.7c-2,7.8-3.8,16-5.2,24.6
		c6.1-7,10.9-14.3,14.2-21.9s5-14.7,5.1-21.3c0-4.7-1-7.1-2.9-7.1C440.3,313.3,438.6,315.6,436.6,320.3z"/>
	<path class="st1" d="M506.3,375.3c1.1,0,2,0.3,2.7,1.1c0.6,0.8,1,1.8,1,3.1c0,2.4-0.4,4.3-1.4,5.7c-1,1.4-2.3,2.3-4.2,3
		c-3.6,1.1-7.3,1.7-11.4,1.7c-3.4,0-6.6-0.4-9.6-1.4c-2.3,3.6-4.7,7.3-7.3,11.2c-3.1,4.5-5.7,7.3-8,9c-2.3,1.6-4.8,2.4-7.7,2.4
		c-3.1,0-5.7-1.2-7.4-3.7c-1.8-2.4-3-6.4-3.4-11.7c-1-10.7-1.4-20.3-1.4-28.4v-4c0.1-2.5,0.8-4.4,2.1-5.3c1.3-1,3.2-1.5,5.9-1.5
		c2,0,3.5,0.4,4.5,1.3c1,0.9,1.5,2.4,1.5,4.5c0,8.9,0.5,20.4,1.6,34.6c4.6-6.9,8.1-12.4,10.4-16.4c-1.1-2.3-1.7-4.9-1.7-8
		c0-2.6,0.6-5.2,1.7-7.7c1.1-2.4,2.7-4.5,4.8-6c2.1-1.6,4.3-2.3,6.8-2.3c2.3,0,4,0.8,5.4,2.4c1.4,1.6,2.1,3.9,2.1,6.9
		c0,3.5-1,7.4-2.7,12c3-0.2,6.8-0.7,11.7-1.7l3.1-0.6C505.4,375.3,505.8,375.3,506.3,375.3L506.3,375.3z"/>
	<path class="st1" d="M195.4,365c0.6,1,1,2.4,1,4.2c0,3.4-0.8,5.9-2.4,7.8c-3.6,4.5-7.4,8.1-11.6,10.9c-4.2,2.8-8.9,4.3-14.2,4.3
		c-4.5,0-8-1.6-10.8-4.8c-4.8,3.1-9.7,4.7-14.9,4.8c-1.1,16.2-3.5,29.7-7.3,40.5c-3.8,10.8-9.5,16.3-17,16.3c-4.5,0-7.9-1.7-10-4.9
		c-2.2-3.3-3.3-7.8-3.3-13.5c0-8.2,1.9-17.7,5.7-28.8c3.8-10.9,9.6-23,17.4-36.1c0-12.2-0.1-20.7-0.3-25.5c-0.1-2.4,0.9-4.3,2.9-5.8
		c2-1.4,4.5-2.1,7.5-2.1c1.7,0,3.1,0.3,3.8,1.1c0.8,0.7,1.2,2.1,1.3,4.3c0,2.1,0.1,3.6,0.2,4.6c2.7-3.4,5.3-5.8,8-7.3
		c2.6-1.5,5.3-2.2,8.3-2.2c4.7,0,8.6,1.9,11.4,5.7c3,3.8,4.5,8.7,4.5,14.9c0,4.5-0.7,8.7-2.1,12.9c-1.4,4.2-3.4,8-5.9,11.4
		c1.7,0.4,3.2,0.8,4.4,0.8c2.7,0,5.4-1,8-3c2.5-2,5.8-5.3,9.7-10c1-1.1,2.1-1.7,3.4-1.7C193.9,363.5,194.8,364,195.4,365L195.4,365z
		 M124.7,421.9c1.5-9.8,2.4-22,2.9-36.8c-3.6,8.4-6.5,16.4-8.6,24s-3.1,14.1-3.1,19.2c0,2.7,0.3,4.7,1,6.1s1.3,2.1,2.2,2.1
		C121.3,436.7,123.2,431.7,124.7,421.9L124.7,421.9z M151.4,375.1c2.6-2.7,4.5-5.9,6.1-9.8c1.6-3.9,2.3-8,2.3-12.2
		c0-2.5-0.4-4.4-1.5-5.8c-1-1.3-2.4-1.9-4-1.9c-3,0-6.6,3.2-10.9,9.6c-0.1,3.7-0.2,9.1-0.2,16.2c0,3.8-0.1,6.8-0.2,8.9
		C146.1,379.4,148.8,377.8,151.4,375.1L151.4,375.1z"/>
	<path class="st1" d="M250.8,353.2c1.2,0,2.2,0.3,2.9,1.2c0.7,0.9,1,1.9,1,3.4c0,2.6-0.4,4.6-1.5,6.1c-1,1.5-2.5,2.5-4.5,3.2
		c-3.8,1.2-8,1.9-12.3,1.9c-3.7,0-7.2-0.4-10.5-1.5c-2.4,3.9-5.1,8-8,12.1c-3.4,4.8-6.2,8-8.7,9.8c-2.4,1.7-5.2,2.7-8.3,2.7
		c-3.5,0-6.1-1.3-8.1-4c-1.9-2.7-3.2-6.9-3.7-12.8c-1-11.7-1.5-22-1.5-30.8v-4.4c0.1-2.7,0.9-4.7,2.3-5.8c1.4-1.1,3.5-1.7,6.5-1.7
		c2.2,0,3.8,0.4,4.9,1.4c1,1,1.6,2.6,1.6,4.9c0,9.7,0.5,22.1,1.7,37.6c5.1-7.4,8.8-13.5,11.3-17.8c-1.2-2.4-1.9-5.3-1.9-8.7
		c0-2.8,0.6-5.6,1.9-8.3c1.2-2.7,3-4.9,5.2-6.6s4.6-2.5,7.3-2.5c2.4,0,4.4,0.9,5.9,2.6c1.5,1.7,2.3,4.3,2.3,7.4c0,3.8-1,8.1-3,12.9
		c3.2-0.2,7.3-0.8,12.8-1.9l3.4-0.6C249.8,353.2,250.3,353.2,250.8,353.2L250.8,353.2z"/>
	<path class="st1" d="M728.3,417.8c-3-4.6-4.5-10.9-4.5-18.7c0-4.6,0.5-10.5,1.7-17.7c1.2-7.2,2.6-13.9,4.5-20.1
		c0.9-3.2,2.2-5.5,3.7-6.7c1.6-1.2,3.9-1.8,7.4-1.8c5.2,0,7.8,1.7,7.8,5.2c0,2.5-1,8.5-2.9,17.7c-2.4,11.2-3.7,18.9-3.7,22.8
		c0,3.1,0.4,5.4,1.2,7.1c0.9,1.6,2.3,2.4,4.1,2.4s4.1-1.2,6.9-3.8c2.8-2.5,6.4-6.6,11-12.1c1.2-1.5,2.5-2.2,4.1-2.2
		c1.3,0,2.4,0.6,3.1,1.8c0.8,1.2,1.2,2.9,1.2,5.1c0,4.1-1,7.3-2.9,9.4c-10.1,12.3-19.6,18.5-28.3,18.5
		C736.2,424.9,731.4,422.5,728.3,417.8L728.3,417.8z M734.5,339.6c-2.2-2-3.2-4.8-3.2-8.4s1.4-6.6,4.2-9c2.8-2.4,6.4-3.6,10.5-3.6
		c3.8,0,6.8,0.9,9.2,2.8c2.4,1.8,3.6,4.5,3.6,7.8c0,4.1-1.3,7.3-3.9,9.8c-2.6,2.4-6.2,3.6-10.6,3.6S736.6,341.5,734.5,339.6
		L734.5,339.6z"/>
	<path class="st1" d="M135.3,685.1c-1.6-4.1-2.4-10.7-2.4-19.7c0-13.3,1.8-25.9,5.6-37.8c0.9-3,2.4-5.2,4.5-6.5
		c2.1-1.4,5-2.1,8.8-2.1c2,0,3.5,0.3,4.3,0.8c0.9,0.5,1.2,1.5,1.2,2.9c0,1.6-0.8,5.3-2.3,11c-1,4.1-1.8,7.7-2.4,10.7
		c-0.6,3.1-1.1,6.8-1.6,11.4c3.3-8.7,7.2-15.9,11.4-21.4c4.2-5.5,8.3-9.4,12.3-11.8c4-2.4,7.7-3.6,11.1-3.6c6.6,0,10,3.3,10,10
		c0,3.9-1.1,11.2-3.3,21.6c-1.9,8.9-2.9,14.8-2.9,17.6c0,4.1,1.5,6.1,4.5,6.1c2,0,4.5-1.2,7.3-3.8c2.8-2.5,6.6-6.6,11.3-12.1
		c1.2-1.5,2.5-2.2,4.1-2.2c1.3,0,2.4,0.6,3.1,1.8c0.8,1.2,1.2,2.9,1.2,5.1c0,4.1-1,7.3-2.9,9.4c-4.4,5.4-9.1,9.9-14.2,13.3
		c-5.1,3.5-10.7,5.2-17.2,5.2c-5.2,0-9.1-1.6-11.8-4.5c-2.6-3-3.9-7.3-3.9-13.1c0-2.9,0.7-8,2.2-15.3c1.3-6.4,2-10.8,2-13.3
		c0-1.6-0.5-2.4-1.7-2.4c-1.3,0-3.2,1.7-5.6,5.2c-2.4,3.4-4.9,8-7.3,13.5c-2.5,5.6-4.5,11.5-6,17.7c-1.1,4.8-2.4,8-3.9,9.7
		s-3.8,2.5-7,2.5C139.6,691.2,136.9,689.2,135.3,685.1L135.3,685.1z"/>
	<path class="st1" d="M399.7,682.7c-1.6-4-2.4-10.6-2.4-19.5c0-13.2,1.8-25.7,5.6-37.6c0.9-3,2.4-5.1,4.5-6.5c2.1-1.4,5-2.1,8.7-2.1
		c2,0,3.4,0.3,4.3,0.8c0.8,0.5,1.2,1.5,1.2,2.9c0,1.7-0.8,5.2-2.3,10.9c-1,4-1.8,7.6-2.4,10.6s-1.1,6.7-1.5,11.2
		c2.7-8,6-14.6,9.8-20.1c3.8-5.5,7.7-9.5,11.7-12.2s7.8-4,11.4-4c3.6,0,6,0.8,7.5,2.4c1.5,1.7,2.2,4.1,2.2,7.4c0,3.2-1,9.2-2.9,17.7
		c-0.8,3.7-1.4,6.4-1.7,8.2c5.1-12.5,10.7-21.6,16.9-27.3c6.2-5.7,12-8.6,17.4-8.6c6.6,0,9.9,3.3,9.9,9.9c0,3.9-1.1,11.1-3.3,21.5
		c-1.9,8.8-2.9,14.7-2.9,17.5c0,4,1.5,6.1,4.5,6.1c2,0,4.5-1.2,7.3-3.8c2.8-2.4,6.6-6.6,11.2-12.1c1.2-1.4,2.6-2.1,4.1-2.1
		c1.3,0,2.4,0.6,3.1,1.8s1.1,2.9,1.1,5c0,4-1,7.2-2.9,9.4c-4.4,5.4-9.1,9.8-14.1,13.3c-5,3.4-10.7,5.2-17.1,5.2
		c-5.2,0-9.1-1.5-11.7-4.5c-2.6-3-3.9-7.3-3.9-13c0-2.9,0.7-8,2.1-15.2c1.3-6.4,2-10.8,2-13.3c0-1.7-0.5-2.4-1.7-2.4
		c-1.3,0-3.2,1.7-5.6,5.1c-2.4,3.4-4.9,7.9-7.3,13.5c-2.4,5.6-4.5,11.4-5.9,17.7c-1.1,4.9-2.4,8.1-3.8,9.7c-1.5,1.7-3.8,2.4-7.1,2.4
		c-3.3,0-5.9-1.6-7.5-4.8c-1.7-3.2-2.5-7.1-2.5-11.6c0-3.8,0.5-9.4,1.5-16.8c0.8-6.5,1.2-10.7,1.2-12.8c0-1.7-0.5-2.4-1.7-2.4
		c-1.5,0-3.4,1.8-5.8,5.5c-2.4,3.7-4.6,8.3-6.8,14s-3.9,11.3-5.2,16.8c-1.1,4.8-2.4,8-3.8,9.7c-1.5,1.7-3.8,2.5-6.9,2.5
		C404,688.9,401.3,686.8,399.7,682.7L399.7,682.7z"/>
	<rect x="31.4" y="503.2" class="st2" width="852.1" height="8.7"/>
	<rect x="595.3" y="222.7" class="st2" width="8.7" height="568.9"/>
	<rect x="311.2" y="222.7" class="st2" width="8.7" height="568.9"/>
	<path class="st3" d="M331.5,207.9l60.2-137l141.2,22.2l15.3,150c1,9.5-8.7,16.5-17.5,12.7c-19.6-8.7-52.3-21.1-91.9-28.1
		c-38.9-7-73.1-4.9-94.4-2.2C334.9,226.5,327.6,216.8,331.5,207.9L331.5,207.9z"/>
	<path class="st4" d="M278.7,84.6L468.8,33c0.8-0.2,1.7-0.1,2.4,0.3l165.2,107.3c2.2,1.4,1.6,4.6-0.9,5.4l-190.2,51.6
		c-0.8,0.2-1.7,0.1-2.4-0.3L277.8,90C275.7,88.5,276.2,85.3,278.7,84.6L278.7,84.6z"/>
	<path class="st5" d="M640,138.4c-7.3,5.5-12.5,13.7-12.5,22c0,0.6,0.1,1,0,1.7v1.7l0.2,3.4l0.5,7c0.3,4.6,0.4,9.2,0.6,13.8
		c0.1,9.4-0.4,18.8-2.5,28.1c-0.5,2.4-1.2,4.6-2.1,7c-0.9,2.4-1.8,4.7-2.8,6.8c-2.1,4.3-4.2,8.4-6.4,12.4
		c-4.4,8.1-8.4,16.1-12.1,24.4c-1.9,4.1-3.7,8.2-5.2,12.6c-1.7,4.2-3.1,8.5-4.4,12.8c-5.3,17.1-7.8,35.2-6.9,53.8
		c-1-4.5-1.9-9.1-2.4-13.5c-0.3-2.3-0.4-4.6-0.6-7c-0.1-2.4-0.2-4.7-0.1-7c0.1-4.6,0.3-9.4,1-14c0.5-4.7,1.4-9.3,2.4-13.9
		c2-9.1,5-18.2,8.5-26.7c3.5-8.7,7.5-17.1,11.7-25.2c2.1-4.1,4.4-8.1,6.2-12.1c1-1.9,1.8-3.9,2.5-5.9c0.6-2,1.3-4,1.8-6.1
		c2.2-8.3,3.1-17.3,3.6-26.3c0.3-4.5,0.4-9,0.6-13.6c0-2.3,0.2-4.6,0.3-6.9l0.3-3.5l0.2-1.8c0.2-0.5,0.1-1.2,0.3-1.9
		c0.6-5.1,3-9.6,6-13.4C632,143.1,635.8,140.2,640,138.4L640,138.4z"/>
	<path class="st5" d="M639.6,148.5c0.2,1,0,2.1-0.3,3.1c-0.3,1-0.7,1.9-1.2,2.8c-1,1.8-2.1,3.6-3.2,5.2c-2.3,3.4-4.9,6.6-7.2,10
		c-2.3,3.3-4.6,6.6-6.6,10c-2.1,3.4-4,6.9-5.7,10.4c-3.2,7.2-5.7,14.6-6.6,22.2c-0.3,1.9-0.4,3.8-0.6,5.8c-0.2,1.9-0.1,3.8-0.1,5.8
		c0.2,3.8,0.3,7.8,0.7,11.9c1.5,15.9,3.3,32.6,1.8,49.3c-0.4,4.2-1,8.3-1.8,12.4s-2,8.1-3.4,12.1c-1.4,3.9-3.2,7.7-5.2,11.4
		c-1.9,3.7-4.3,7.1-7,10.2c0.9-1.8,1.7-3.8,2.4-5.6c0.9-1.8,1.4-3.7,2.1-5.7c1.2-3.8,2.3-7.6,3.1-11.6c1.6-7.8,2.3-15.6,2.4-23.6
		c0.1-8-0.3-15.8-1.1-23.9c-0.7-8-1.6-16.1-2.2-24.3c-0.3-4.1-0.5-8.2-0.3-12.6c0-2.2,0.2-4.2,0.3-6.4c0.2-2.2,0.5-4.3,0.9-6.4
		c1.7-8.5,4.7-16.5,8.9-23.9c2-3.8,4.5-7.2,7.1-10.4c2.4-3.3,5.3-6.5,8-9.4c2.8-3.1,5.6-5.9,8.4-8.9c1.4-1.5,2.7-2.9,3.8-4.5
		c0.5-0.8,1.2-1.7,1.6-2.6C639.4,150.5,639.7,149.6,639.6,148.5L639.6,148.5z"/>
	<path class="st3" d="M816.7,791.6c37,0,66.9-30,66.9-66.9V512H604v279.6H816.7z"/>
	<rect x="662.8" y="595.1" class="st0" width="157.6" height="37.2"/>
	<rect x="662.8" y="669.5" class="st0" width="157.6" height="37.2"/>
</g>
<g>
	<path class="st6" d="M883.3,641.6h16V663c26.9,0,53.8,0.1,80.7-0.1c4.5,0.2,9.5-0.1,13.5,2.6c2.8,4,2.4,9,2.6,13.6
		c-0.1,46.6-0.1,93.2-0.1,139.9c-0.1,7.8,0.7,15.8-0.9,23.5c-1.1,5.6-7.8,5.7-12.3,5.9c-27.8,0.1-55.7-0.1-83.5,0v24.2h-16.7
		c-40.9-7.4-82-14.3-123-21.5v-188C800.9,655.9,842.1,648.8,883.3,641.6z"/>
	<path class="st2" d="M899.3,671.1h88.7v169.2h-88.7v-16.1h21.5v-18.8h-21.5v-10.7h21.5v-18.8h-21.5v-10.7h21.5v-18.8h-21.5v-10.7
		h21.5v-18.8h-21.5V706h21.5v-18.8h-21.5V671.1z"/>
	<path class="st6" d="M931.5,687.2h37.6V706h-37.6V687.2z"/>
	<path class="st2" d="M839.2,712.4c6.1-0.4,12.2-0.8,18.3-1.1c-7.2,14.7-14.4,29.4-21.7,44c7.4,15,14.9,30,22.3,45
		c-6.5-0.4-12.9-0.8-19.4-1.2c-4.6-11.2-10.1-22-13.4-33.7c-3.7,10.9-8.9,21.2-13.1,31.9c-5.9-0.1-11.8-0.3-17.7-0.6
		c6.9-13.5,13.6-27.1,20.7-40.6c-6-13.8-12.7-27.4-18.9-41.2c5.9-0.4,11.8-0.7,17.7-1c4,10.5,8.4,20.9,11.7,31.6
		C829.4,734.2,834.7,723.4,839.2,712.4L839.2,712.4z"/>
	<path class="st6" d="M931.5,716.8h37.6v18.8h-37.6V716.8z M931.5,746.3h37.6v18.8h-37.6V746.3z M931.5,775.9h37.6v18.8h-37.6V775.9
		z M931.5,805.4h37.6v18.8h-37.6V805.4z"/>
</g>
</svg>
