<?xml version="1.0" encoding="utf-8"?>
<!-- Generator: Adobe Illustrator 22.1.0, SVG Export Plug-In . SVG Version: 6.00 Build 0)  -->
<svg version="1.1" id="Layer_1" xmlns="http://www.w3.org/2000/svg" xmlns:xlink="http://www.w3.org/1999/xlink" x="0px" y="0px"
	 viewBox="0 0 1000 1000" style="enable-background:new 0 0 1000 1000;" xml:space="preserve">
<style type="text/css">
	.st0{fill:#675DC6;}
	.st1{fill:#FFFFFF;}
	.st2{fill:#207245;}
</style>
<g>
	<g>
		<g>
			<path class="st0" d="M714.9,672.4c-13.1-129.3-56.3-222.2-125.1-268.5l-15.1-10.2l14.1-11.6c2.2-1.7,15.7-14.1,24-23.9
				c28.3-33.7,43.9-76.9,43.9-121.4c0-16.5-2.2-33-6.4-48.9l-2.5-9.5l8.2-5.5c24.6-16.4,53.2-25,82.7-25c25.9,0,51.4,6.9,73.9,19.9
				c71,40.9,95.3,132,54.4,202.9c-26.4,45.8-75.9,74.3-128.8,74.3l0,0c-0.8,0-1.5,0-2.3,0c40.4,55.6,42.5,134.5,5.5,230.9
				l-20.6,53.5L714.9,672.4z"/>
			<path class="st1" d="M738.4,161.5c22.8,0,46,5.8,67.1,18c64.5,37.2,86.7,119.8,49.3,184.4c-25,43.3-70.3,67.5-117,67.5
				c-13.1,0-26.3-1.9-39.1-5.8c67.1,56.2,67.5,146.4,29.6,245.5c-13.6-134.3-58.5-229.5-131.1-278.5c2.5-2.1,16.7-15,25.8-25.7
				c29.7-35.4,47.2-80.9,47.2-130.1c0-18.1-2.4-35.7-7-52.5C685.6,169.4,711.8,161.5,738.4,161.5 M738.4,134.3
				c-32.2,0-63.4,9.5-90.3,27.3l-16.4,10.9l5.1,19c4,14.8,6,30.1,6,45.4c0,41.3-14.5,81.3-40.7,112.7c-7.5,9-20.1,20.4-22.3,22.2
				l-28.1,23.1l30.2,20.4c65.3,44,106.4,133.5,119.2,258.6l21.3,45.5l31.3-38.5c21.4-55.9,30.2-106.8,26.3-151
				c-2.4-26.7-9.4-51-20.7-72.6c20.5-2.7,40.5-9.4,58.6-19.6c25.1-14.2,46.1-34.9,60.6-60.1c21.6-37.6,27.4-81.2,16.2-123.1
				c-11.2-41.8-38.1-76.9-75.5-98.5C794.6,141.8,766.7,134.3,738.4,134.3L738.4,134.3z"/>
		</g>
		<g>
			<path class="st0" d="M195,672.7c-35.6-94.9-33.1-172.6,6.8-227.6c-0.8,0-1.5,0-2.3,0c-52.9,0-102.3-28.5-128.8-74.3
				c-41-71-16.6-162,54.4-202.9c22.5-13,48.1-19.9,74-19.9c28.9,0,57,8.3,81.2,24l8.4,5.5l-2.6,9.6c-4.5,16.3-6.8,33-6.8,49.8
				c0,45,15.9,88.4,44.8,122.5l0.2,0.3c7.3,9.1,20.6,20.7,22.9,22.6l14.1,11.6l-15.1,10.2C278,450,234.9,541.7,221.3,669.3
				l-6.1,57.4L195,672.7z"/>
			<path class="st1" d="M199.1,161.5c26.1,0,51.9,7.6,73.8,21.8c-4.7,17-7.2,34.9-7.2,53.4c0,49.8,17.8,95.7,48,131.3
				c8.3,10.3,22.4,22.5,24.8,24.6c-71.9,48.6-116.8,142.6-130.8,275.2C171,570,172.1,481.2,238.5,425.6c-12.9,3.9-26,5.8-39.1,5.8
				c-46.6,0-92-24.2-117-67.5c-37.2-64.5-15.2-147,49.3-184.4C153.1,167.3,176.2,161.5,199.1,161.5 M199.1,134.3L199.1,134.3
				c-28.3,0-56.2,7.5-80.8,21.7c-37.6,21.6-64.4,56.7-75.5,98.5c-11.2,41.8-5.5,85.6,16.2,123.1c14.5,25.1,35.5,45.8,60.6,60.1
				c18.1,10.3,38.1,16.9,58.6,19.6c-11.2,21.2-18.1,44.9-20.6,71c-1.5,16.4-1.4,33.7,0.5,51.9c5.2,48.5,22.6,94.8,49.8,135.3
				l7.6,11.4l19.6-56c13-123.5,54.1-211.8,118.9-255.4l30.2-20.4l-28.1-23.3c-3.4-2.7-15-13.2-21-20.6l-0.2-0.3l-0.2-0.3
				c-26.7-31.4-41.6-71.8-41.6-113.6c0-15.5,2.1-31.1,6.2-46.2l5.2-19.2l-16.7-10.9C261.3,143.3,230.6,134.3,199.1,134.3
				L199.1,134.3L199.1,134.3z"/>
		</g>
	</g>
	<g>
		<path class="st0" d="M468.7,830.4c-78.5,0-138.6-28.5-175.2-52.3c-39.8-26-61-51.9-61.9-52.9l-3.1-3.7v-4.8
			c0-92.4,19-171.9,54.9-230.1c26.7-43.4,62.4-74.6,104.5-91.6c-22.2-11.4-41.8-27.3-57.6-46.8c-25.2-31.3-39.2-70.8-39.2-111.2
			c0-97.9,79.6-177.5,177.5-177.5s177.5,79.6,177.5,177.5c0,40.4-13.9,79.8-39.2,111.2c-16.4,20.4-37.2,36.9-60.5,48.3
			c42.2,19,78.2,50.5,105.2,92.8c37.8,59.1,57,135.6,57,227.5v4l-2.2,3.4c-0.8,1.1-18.3,27.6-56.5,53.9
			C615.2,801.8,555.4,830.4,468.7,830.4z"/>
		<path class="st1" d="M468.7,72.9c90.5,0,163.9,73.4,163.9,163.9c0,77.7-54.1,142.8-126.7,159.6C612,423.8,695.2,529.1,695.2,716.5
			c0,0-65.5,100.2-226.5,100.2c-145.5,0-226.5-100.2-226.5-100.2c0-187.4,77.8-300.2,189.4-320.2c-72.6-16.8-126.7-81.9-126.7-159.6
			C304.8,146.3,378.2,72.9,468.7,72.9 M468.7,45.6c-25.8,0-50.9,5-74.5,15.1c-22.8,9.6-43.2,23.4-60.8,40.9
			c-17.6,17.6-31.3,38-40.9,60.8c-9.9,23.6-15.1,48.6-15.1,74.5c0,22.2,3.8,43.9,11.2,64.6c7.2,20,17.6,38.5,31,55.1
			c11.4,14.2,24.8,26.6,39.5,36.9c-34.6,19.2-64.2,48.1-87.4,85.8c-18.4,29.9-32.6,65.1-42.2,104.5c-9.7,40.2-14.6,84.8-14.6,132.7
			v9.6l6.1,7.5c1,1.2,23.5,28.7,65.1,55.8c24.2,15.8,50.2,28.4,77.3,37.4c33.8,11.4,69.3,17,105.5,17c39.6,0,77.2-5.7,111.8-17
			c27.9-9.2,53.9-21.8,77.3-37.9c39.8-27.3,58.3-54.7,60.3-57.6l4.5-6.8v-8.1c0-47.7-5.2-92.1-15.5-132.1
			c-9.9-38.4-24.6-73-43.7-102.7C640,445,610,415.9,575.1,395.6c16-10.7,30.5-23.9,42.7-39.1c13.3-16.6,23.8-35.2,31-55.1
			c7.4-20.7,11.2-42.5,11.2-64.6c0-25.8-5-50.9-15.1-74.5c-9.6-22.8-23.4-43.2-40.9-60.8s-38-31.3-60.8-40.9
			C519.6,50.6,494.5,45.6,468.7,45.6L468.7,45.6z"/>
	</g>
</g>
<g>
	<path class="st0" d="M467.4,914.8c-7.5,0-13.8-4.9-15.8-12.2l-5.3-22.9l-19.3-7.3c-3.2-1.2-5.9-3.5-7.8-6.4l-7.8-12.7l-13,1
		c-0.4,0-0.8,0-1.2,0c-6.1,0-11.5-3.3-14.2-8.5L373,826l-15.4,0.4h-0.4c-7.3,0-13.5-4.8-15.4-11.9l-3.9-15.4l-10.6,1.5
		c-0.9,0.1-1.6,0.2-2.4,0.2c-8,0-14.5-5.7-15.7-13.6l-4-26.9l-15.9,3.4c-1.2,0.2-2.4,0.3-3.6,0.3c-7.5,0-13.9-5-15.5-12.4l-1-4.6
		l-11.7,1.1c-0.5,0.1-1.1,0.1-1.6,0.1c-3.7,0-7.1-1.1-9.9-3.4c-2.9-2.3-6.5-3.6-10.3-3.6c-2.1,0-4,0.3-6,1.1
		c-17.6,6.9-36,10.4-54.9,10.4c-36.2,0-71.2-13.2-98.6-37.2c-27-23.7-44.2-57.7-48.5-95.8c-4.3-38.1,4.9-75.1,26-104.1
		c14.3-19.9,32.6-35.4,54.4-46.2c20.6-10.3,43.7-15.7,66.8-15.7c34.3,0,66.5,11.2,93.2,32.6c42.5,33.8,63.2,88.3,54.1,141.9
		c-1.3,7.6,1.5,15.3,7.3,19.9l210.9,168.3l4.8,85.5l-74.8,12.7C469.4,914.7,468.4,914.8,467.4,914.8L467.4,914.8z M116.1,556.5
		c-14.4,18.1-11.5,44.6,6.7,59.1c7.5,6,16.6,9.2,26.2,9.2c12.9,0,24.9-5.8,32.9-15.8c7-8.7,10.2-19.8,9-30.9
		c-1.2-11.1-6.8-21.2-15.5-28.2c-7.5-6-16.6-9.2-26.2-9.2C136.2,540.7,124.2,546.5,116.1,556.5z"/>
	<path class="st1" d="M174.7,464.5c30.3,0,60.8,9.9,86.5,30.2c40.8,32.5,58.3,83.5,50.2,131.5c-2,11.5,2.2,23,11.2,30.2l207.1,165.3
		l3.9,71l-65.3,11.4c-0.4,0.1-0.8,0.1-1.1,0.1c-2.4,0-4.4-1.5-4.9-3.9l-6-26c-0.3-1.7-1.4-3.1-2.9-3.6l-22.5-8.4
		c-0.9-0.4-1.7-1.1-2.3-2l-9.7-15.8c-0.9-1.5-2.4-2.3-4.3-2.3c-0.1,0-0.3,0-0.4,0l-16.5,1.2c-0.1,0-0.3,0-0.4,0c-2,0-3.6-1-4.5-2.6
		l-11.8-23c-0.9-1.6-2.5-2.6-4.5-2.6h-0.1l-19.1,0.4h-0.1c-2.3,0-4.3-1.4-4.8-3.7l-5.2-20.4c-0.5-2.3-2.4-3.7-4.8-3.7
		c-0.3,0-0.5,0.1-0.9,0.1l-15.6,2.2c-0.3,0.1-0.5,0.1-0.9,0.1c-2.6,0-4.6-1.7-5-4.4l-5-32.9c-0.4-2.7-2.4-4.4-5-4.4
		c-0.4,0-0.9,0-1.3,0.1l-21.8,4.6c-0.4,0.1-0.9,0.1-1.3,0.1c-2.4,0-4.4-1.5-4.9-3.9l-2.2-9.6c-0.5-2.4-2.5-3.9-4.9-3.9
		c-0.1,0-0.3,0-0.5,0l-16.7,1.5c-0.1,0-0.3,0-0.5,0c-1.2,0-2.3-0.4-3.2-1.1c-5-3.9-11-6-17.1-6c-3.3,0-6.7,0.5-9.9,1.9
		c-16.3,6.3-33.6,9.6-51,9.6c-32.3,0-64.8-11.2-91.4-34.5c-51.5-45.1-61-130-20.9-185.4C89.7,484.1,131.9,464.5,174.7,464.5
		 M149.1,635.6c15.5,0,30.9-6.8,41.4-20c18.2-22.9,14.4-56.2-8.4-74.5c-9.7-7.8-21.4-11.6-33-11.6c-15.5,0-30.9,6.9-41.4,20
		c-18.2,22.9-14.4,56.2,8.4,74.5C125.8,631.8,137.5,635.6,149.1,635.6 M174.7,442.6c-24.8,0-49.6,5.8-71.8,16.8
		c-23,11.5-43.2,28.6-58.4,49.6C33,524.8,24.8,543,20,562.7c-4.6,18.9-5.7,38.4-3.5,58.1c2.2,19.8,7.6,38.5,16.3,55.9
		c9.1,18.2,21.1,34.1,35.8,46.9c29.4,25.8,66.9,40,105.8,40c20.3,0,40.1-3.7,58.9-11.1c0.7-0.2,1.3-0.3,2-0.3c1.3,0,2.5,0.4,3.5,1.2
		c4.7,3.7,10.7,5.8,16.8,5.8c0.9,0,1.7,0,2.6-0.1l2.5-0.2c4.1,9.7,13.8,16.2,24.7,16.2c2,0,3.9-0.2,5.9-0.7l4.7-1l2.3,15.4
		c2,13.3,13.1,22.9,26.5,22.9c1.2,0,2.5,0,3.8-0.2l1-0.1l1.5,5.9c3.1,12,13.5,20.1,26,20.1c0.2,0,0.4,0,0.7,0l8.6-0.2l7,13.5
		c4.6,9,13.8,14.5,23.9,14.5c0.7,0,1.3-0.1,2-0.1l6.4-0.4l4.4,7c3.1,5,7.8,8.8,13.2,10.9l13.9,5.2l4,17.2
		c2.8,12.2,13.6,20.7,26.2,20.7c1.5,0,3.2-0.2,4.7-0.4l65.2-11l19.2-3.3l-1.1-19.4l-3.9-71l-0.5-9.7l-7.6-6.1L336.2,639.5
		c-2.7-2.1-4-5.8-3.4-9.5c9.7-57.5-12.6-115.9-58.1-152.3c-14.4-11.5-30.6-20.3-47.9-26.3C210,445.6,192.5,442.6,174.7,442.6
		L174.7,442.6z M149.1,613.8c-7.2,0-13.9-2.3-19.3-6.8c-6.4-5.2-10.5-12.6-11.5-20.9c-1-8.3,1.4-16.4,6.5-22.9
		c5.9-7.4,14.8-11.7,24.3-11.7c7.1,0,13.8,2.3,19.3,6.8c6.4,5.2,10.5,12.6,11.5,20.9c1,8.3-1.4,16.4-6.5,22.9
		C167.5,609.6,158.6,613.8,149.1,613.8L149.1,613.8z"/>
</g>
<g>
	<path class="st2" d="M742.3,600.6h20.9v28.2c35.2,0,70.5,0.1,105.7-0.1c6,0.2,12.5-0.2,17.7,3.4c3.6,5.2,3.2,11.8,3.4,17.8
		c-0.2,61.1-0.1,122.2-0.1,183.2c-0.2,10.2,0.9,20.7-1.2,30.8c-1.4,7.3-10.2,7.5-16.1,7.7c-36.5,0.1-73-0.1-109.5,0v31.7h-21.9
		c-53.6-9.8-107.4-18.8-161.1-28.2V628.8C634.3,619.4,688.3,610.1,742.3,600.6z"/>
	<path class="st1" d="M763.2,639.3h116.2V861H763.2v-21.1h28.2v-24.6h-28.2v-14.1h28.2v-24.6h-28.2v-14.1h28.2v-24.6h-28.2v-14.1
		h28.2v-24.6h-28.2V685h28.2v-24.6h-28.2V639.3z"/>
	<path class="st2" d="M805.5,660.4h49.3V685h-49.3V660.4z"/>
	<path class="st1" d="M684.5,693.4c8-0.6,15.9-1.1,23.9-1.4c-9.4,19.3-18.9,38.5-28.4,57.7c9.7,19.7,19.6,39.3,29.3,59
		c-8.5-0.5-16.9-1-25.4-1.6c-6-14.7-13.3-28.9-17.6-44.2c-4.8,14.3-11.6,27.8-17.1,41.8c-7.7-0.1-15.4-0.4-23.1-0.7
		c9-17.7,17.8-35.6,27.1-53.2c-7.9-18.1-16.6-35.9-24.8-53.9c7.7-0.5,15.5-0.9,23.2-1.3c5.2,13.8,11,27.3,15.3,41.5
		C671.6,721.9,678.6,707.9,684.5,693.4L684.5,693.4z"/>
	<path class="st2" d="M805.5,699.1h49.3v24.6h-49.3V699.1z M805.5,737.8h49.3v24.6h-49.3V737.8z M805.5,776.6h49.3v24.6h-49.3V776.6
		z M805.5,815.3h49.3v24.6h-49.3V815.3z"/>
</g>
</svg>
