<?xml version="1.0" encoding="utf-8"?>
<!-- Generator: Adobe Illustrator 22.1.0, SVG Export Plug-In . SVG Version: 6.00 Build 0)  -->
<svg version="1.1" id="Camada_1" xmlns="http://www.w3.org/2000/svg" xmlns:xlink="http://www.w3.org/1999/xlink" x="0px" y="0px"
	 viewBox="0 0 230.4 271" style="enable-background:new 0 0 230.4 271;" xml:space="preserve">
<style type="text/css">
	.st0{fill:#FFFFFF;}
	.st1{fill:#7FD7C3;}
	.st2{fill:#6B625A;}
	.st3{fill:#534747;}
	.st4{fill:#58595B;}
	.st5{fill:#D7384A;}
	.st6{fill:#207245;}
</style>
<path class="st0" d="M180.2,257.7h-157c-3.6,0-6.6-3.1-6.6-7V32.3c0-3.9,2.9-7,6.6-7h157c3.6,0,6.6,3.1,6.6,7v218.4
	C186.8,254.6,183.8,257.7,180.2,257.7L180.2,257.7z"/>
<path class="st1" d="M180.2,263.7h-157c-6.8,0-12.2-5.8-12.2-13V32.3c0-7.2,5.4-13,12.2-13h157c6.8,0,12.2,5.8,12.2,13v218.4
	C192.4,257.8,186.9,263.7,180.2,263.7z M23.2,31.2c-0.6,0-0.9,0.5-0.9,1v218.4c0,0.6,0.5,1,0.9,1h157c0.6,0,0.9-0.5,0.9-1V32.3
	c0-0.6-0.5-1-0.9-1L23.2,31.2L23.2,31.2z"/>
<path class="st2" d="M138.5,43.5H64.9c-12.5,0-22.7-10.8-22.7-24.2h119C161.2,32.7,151.1,43.5,138.5,43.5z"/>
<path class="st3" d="M101.8,4.4L101.8,4.4c-8.3,0-15,6.7-15,14.9h8.8c0-3.4,2.8-6.1,6.1-6.1c3.4,0,6.1,2.8,6.1,6.1h8.8
	C116.7,11.1,110,4.4,101.8,4.4L101.8,4.4z"/>
<path class="st4" d="M170.9,53.6H35.3c-1.1,0-2-0.9-2-2.1s0.9-2.1,2-2.1h135.6c1.1,0,2,0.9,2,2.1S172,53.6,170.9,53.6z"/>
<path class="st4" d="M170.9,63.4H35.3c-1.1,0-2-0.9-2-2.1s0.9-2.1,2-2.1h135.6c1.1,0,2,0.9,2,2.1C172.9,62.4,172,63.4,170.9,63.4z"
	/>
<path class="st4" d="M170.9,73H35.3c-1.1,0-2-0.9-2-2.1s0.9-2.1,2-2.1h135.6c1.1,0,2,0.9,2,2.1C172.9,72.1,172,73,170.9,73z"/>
<path class="st4" d="M170.9,82.7H35.3c-1.1,0-2-0.9-2-2.1s0.9-2.1,2-2.1h135.6c1.1,0,2,0.9,2,2.1C172.9,81.7,172,82.7,170.9,82.7z"
	/>
<path class="st4" d="M170.9,92.3H35.3c-1.1,0-2-0.9-2-2.1s0.9-2.1,2-2.1h135.6c1.1,0,2,0.9,2,2.1C172.9,91.4,172,92.3,170.9,92.3z"
	/>
<path class="st4" d="M83.7,102H35.3c-1.1,0-2-0.9-2-2.1s0.9-2.1,2-2.1h48.5c1.1,0,2,0.9,2,2.1C85.7,101.1,84.8,102,83.7,102z"/>
<path class="st4" d="M170.9,198.6H35.3c-1.1,0-2-0.9-2-2.1s0.9-2.1,2-2.1h135.6c1.1,0,2,0.9,2,2.1S172,198.6,170.9,198.6z"/>
<path class="st4" d="M170.9,208.2H35.3c-1.1,0-2-0.9-2-2.1c0-1.2,0.9-2.1,2-2.1h135.6c1.1,0,2,0.9,2,2.1
	C172.9,207.3,172,208.2,170.9,208.2z"/>
<path class="st4" d="M170.9,217.9H35.3c-1.1,0-2-0.9-2-2.1c0-1.2,0.9-2.1,2-2.1h135.6c1.1,0,2,0.9,2,2.1
	C172.9,217,172,217.9,170.9,217.9z"/>
<path class="st4" d="M170.9,227.5H35.3c-1.1,0-2-0.9-2-2.1c0-1.2,0.9-2.1,2-2.1h135.6c1.1,0,2,0.9,2,2.1
	C172.9,226.6,172,227.5,170.9,227.5z"/>
<path class="st4" d="M170.9,237.3h-48.5c-1.1,0-2-0.9-2-2.1s0.9-2.1,2-2.1h48.5c1.1,0,2,0.9,2,2.1
	C172.9,236.3,172,237.3,170.9,237.3z"/>
<path class="st4" d="M170.2,138.5H36.8c-0.2,0-0.4-0.2-0.4-0.4c0-0.3,0.2-0.4,0.4-0.4h133.5c0.2,0,0.4,0.2,0.4,0.4
	C170.6,138.4,170.4,138.5,170.2,138.5z"/>
<path class="st4" d="M170.2,152H36.8c-0.2,0-0.4-0.2-0.4-0.4c0-0.3,0.2-0.4,0.4-0.4h133.5c0.2,0,0.4,0.2,0.4,0.4
	C170.7,151.9,170.4,152,170.2,152z"/>
<path class="st4" d="M170.2,165.5H36.8c-0.2,0-0.4-0.2-0.4-0.4c0-0.3,0.2-0.4,0.4-0.4h133.5c0.2,0,0.4,0.2,0.4,0.4
	C170.6,165.3,170.4,165.5,170.2,165.5z"/>
<path class="st4" d="M168.3,128.3v46.6H37.9v-46.6L168.3,128.3 M169.9,125.5H36.2c-0.6,0-0.9,0.4-0.9,1v50.2c0,0.6,0.4,1,0.9,1
	h133.7c0.6,0,0.9-0.4,0.9-1v-50.2C170.9,125.9,170.5,125.5,169.9,125.5z"/>
<path class="st5" d="M36.8,175.6L52,153.9c0.9-1.3,2.6-1.9,4.1-1.4l15.7,5.3c1.3,0.4,2.8,0.1,3.8-1l12.8-14.3c0.9-1.1,2.5-1.5,3.9-1
	l17.1,6c1.1,0.4,2.4,0.2,3.4-0.6c8.3-6.6,48-37.7,57.7-39.4C158.5,119,123,151.7,115,159c-1,0.9-2.4,1.2-3.6,0.8l-17.2-6.5
	c-1.3-0.5-2.8-0.2-3.9,0.9L78,167.3c-1.1,1.2-2.8,1.4-4.2,0.8l-16.7-8.2c-1.3-0.7-2.8-0.4-3.9,0.6L36.8,175.6L36.8,175.6z"/>
<g>
	<path class="st6" d="M195.2,191.9h5v6.7c8.4,0,16.8,0,25.2,0c1.4,0.1,3,0,4.2,0.8c0.9,1.2,0.8,2.8,0.8,4.2c0,14.6,0,29.1,0,43.7
		c0,2.4,0.2,4.9-0.3,7.3c-0.3,1.7-2.4,1.8-3.8,1.8c-8.7,0-17.4,0-26.1,0v7.5H195c-12.8-2.3-25.6-4.5-38.4-6.7v-58.7
		C169.4,196.4,182.3,194.2,195.2,191.9z"/>
	<path class="st0" d="M200.2,201.1h27.7v52.8h-27.7v-5h6.7V243h-6.7v-3.4h6.7v-5.9h-6.7v-3.4h6.7v-5.9h-6.7V221h6.7v-5.9h-6.7v-3.4
		h6.7v-5.5h-6.7V201.1z"/>
	<path class="st6" d="M210.2,206.2H222v5.9h-11.7v-5.9H210.2z"/>
	<path class="st0" d="M181.4,214c1.9-0.1,3.8-0.3,5.7-0.3c-2.2,4.6-4.5,9.2-6.8,13.7c2.3,4.7,4.7,9.4,7,14.1c-2-0.1-4-0.2-6.1-0.4
		c-1.4-3.5-3.2-6.9-4.2-10.5c-1.1,3.4-2.8,6.6-4.1,10c-1.8,0-3.7-0.1-5.5-0.2c2.2-4.2,4.2-8.5,6.5-12.7c-1.9-4.3-4-8.6-5.9-12.8
		c1.8-0.1,3.7-0.2,5.5-0.3c1.2,3.3,2.6,6.5,3.6,9.9C178.3,220.8,180,217.5,181.4,214L181.4,214z"/>
	<path class="st6" d="M210.2,215.4H222v5.9h-11.7v-5.9H210.2z M210.2,224.6H222v5.9h-11.7v-5.9H210.2z M210.2,233.8H222v5.9h-11.7
		v-5.9H210.2z M210.2,243.1H222v5.9h-11.7v-5.9H210.2z"/>
</g>
</svg>
