<?xml version="1.0" encoding="utf-8"?>
<!-- Generator: Adobe Illustrator 22.1.0, SVG Export Plug-In . SVG Version: 6.00 Build 0)  -->
<svg version="1.1" id="Camada_1" xmlns="http://www.w3.org/2000/svg" xmlns:xlink="http://www.w3.org/1999/xlink" x="0px" y="0px"
	 viewBox="0 0 230.4 309.1" style="enable-background:new 0 0 230.4 309.1;" xml:space="preserve">
<style type="text/css">
	.st0{fill:#FFFFFF;}
	.st1{fill:#7FD7C3;}
	.st2{fill:#6B625A;}
	.st3{fill:#534747;}
	.st4{fill:#58595B;}
	.st5{fill:#D7384A;}
	.st6{fill:#207245;}
</style>
<path class="st0" d="M180.2,264.7h-157c-3.6,0-6.6-3.1-6.6-7V39.3c0-3.9,2.9-7,6.6-7h157c3.6,0,6.6,3.1,6.6,7v218.4
	C186.8,261.6,183.8,264.7,180.2,264.7L180.2,264.7z"/>
<path class="st1" d="M180.2,270.7h-157c-6.8,0-12.2-5.8-12.2-13V39.3c0-7.2,5.4-13,12.2-13h157c6.8,0,12.2,5.8,12.2,13v218.4
	C192.4,264.8,186.9,270.7,180.2,270.7z M23.2,38.2c-0.6,0-0.9,0.5-0.9,1v218.4c0,0.6,0.5,1,0.9,1h157c0.6,0,0.9-0.5,0.9-1V39.3
	c0-0.6-0.5-1-0.9-1L23.2,38.2L23.2,38.2z"/>
<path class="st2" d="M138.5,50.5H64.9c-12.5,0-22.7-10.8-22.7-24.2h119C161.2,39.7,151.1,50.5,138.5,50.5z"/>
<path class="st3" d="M101.8,11.4L101.8,11.4c-8.3,0-15,6.7-15,14.9h8.8c0-3.4,2.8-6.1,6.1-6.1c3.4,0,6.1,2.8,6.1,6.1h8.8
	C116.7,18.1,110,11.4,101.8,11.4L101.8,11.4z"/>
<path class="st4" d="M170.9,60.6H35.3c-1.1,0-2-0.9-2-2.1s0.9-2.1,2-2.1h135.6c1.1,0,2,0.9,2,2.1S172,60.6,170.9,60.6z"/>
<path class="st4" d="M170.9,70.4H35.3c-1.1,0-2-0.9-2-2.1c0-1.2,0.9-2.1,2-2.1h135.6c1.1,0,2,0.9,2,2.1
	C172.9,69.4,172,70.4,170.9,70.4z"/>
<path class="st4" d="M170.9,80H35.3c-1.1,0-2-0.9-2-2.1c0-1.2,0.9-2.1,2-2.1h135.6c1.1,0,2,0.9,2,2.1C172.9,79.1,172,80,170.9,80z"
	/>
<path class="st4" d="M170.9,89.7H35.3c-1.1,0-2-0.9-2-2.1c0-1.2,0.9-2.1,2-2.1h135.6c1.1,0,2,0.9,2,2.1
	C172.9,88.7,172,89.7,170.9,89.7z"/>
<path class="st4" d="M170.9,99.3H35.3c-1.1,0-2-0.9-2-2.1c0-1.2,0.9-2.1,2-2.1h135.6c1.1,0,2,0.9,2,2.1
	C172.9,98.4,172,99.3,170.9,99.3z"/>
<path class="st4" d="M83.7,109H35.3c-1.1,0-2-0.9-2-2.1c0-1.2,0.9-2.1,2-2.1h48.5c1.1,0,2,0.9,2,2.1C85.7,108.1,84.8,109,83.7,109z"
	/>
<path class="st4" d="M170.9,205.6H35.3c-1.1,0-2-0.9-2-2.1s0.9-2.1,2-2.1h135.6c1.1,0,2,0.9,2,2.1S172,205.6,170.9,205.6z"/>
<path class="st4" d="M170.9,215.2H35.3c-1.1,0-2-0.9-2-2.1c0-1.2,0.9-2.1,2-2.1h135.6c1.1,0,2,0.9,2,2.1
	C172.9,214.3,172,215.2,170.9,215.2z"/>
<path class="st4" d="M170.9,224.9H35.3c-1.1,0-2-0.9-2-2.1c0-1.2,0.9-2.1,2-2.1h135.6c1.1,0,2,0.9,2,2.1
	C172.9,224,172,224.9,170.9,224.9z"/>
<path class="st4" d="M170.9,234.5H35.3c-1.1,0-2-0.9-2-2.1c0-1.2,0.9-2.1,2-2.1h135.6c1.1,0,2,0.9,2,2.1
	C172.9,233.6,172,234.5,170.9,234.5z"/>
<path class="st4" d="M170.9,244.3h-48.5c-1.1,0-2-0.9-2-2.1s0.9-2.1,2-2.1h48.5c1.1,0,2,0.9,2,2.1
	C172.9,243.3,172,244.3,170.9,244.3z"/>
<path class="st4" d="M170.2,145.5H36.8c-0.2,0-0.4-0.2-0.4-0.4c0-0.3,0.2-0.4,0.4-0.4h133.5c0.2,0,0.4,0.2,0.4,0.4
	C170.6,145.4,170.4,145.5,170.2,145.5z"/>
<path class="st4" d="M170.2,159H36.8c-0.2,0-0.4-0.2-0.4-0.4c0-0.3,0.2-0.4,0.4-0.4h133.5c0.2,0,0.4,0.2,0.4,0.4
	C170.7,158.9,170.4,159,170.2,159z"/>
<path class="st4" d="M170.2,172.5H36.8c-0.2,0-0.4-0.2-0.4-0.4c0-0.3,0.2-0.4,0.4-0.4h133.5c0.2,0,0.4,0.2,0.4,0.4
	C170.6,172.3,170.4,172.5,170.2,172.5z"/>
<path class="st4" d="M168.3,135.3v46.6H37.9v-46.6H168.3 M169.9,132.5H36.2c-0.6,0-0.9,0.4-0.9,1v50.2c0,0.6,0.4,1,0.9,1h133.7
	c0.6,0,0.9-0.4,0.9-1v-50.2C170.9,132.9,170.5,132.5,169.9,132.5z"/>
<path class="st5" d="M36.8,182.6l15.2-21.7c0.9-1.3,2.6-1.9,4.1-1.4l15.7,5.3c1.3,0.4,2.8,0.1,3.8-1l12.8-14.3
	c0.9-1.1,2.5-1.5,3.9-1l17.1,6c1.1,0.4,2.4,0.2,3.4-0.6c8.3-6.6,48-37.7,57.7-39.4C158.5,126,123,158.7,115,166
	c-1,0.9-2.4,1.2-3.6,0.8l-17.2-6.5c-1.3-0.5-2.8-0.2-3.9,0.9L78,174.3c-1.1,1.2-2.8,1.4-4.2,0.8l-16.7-8.2c-1.3-0.7-2.8-0.4-3.9,0.6
	L36.8,182.6L36.8,182.6z"/>
<g>
	<path class="st6" d="M195.2,220.7h5v6.7c8.4,0,16.8,0,25.2,0c1.4,0.1,3,0,4.2,0.8c0.9,1.2,0.8,2.8,0.8,4.2c0,14.6,0,29.1,0,43.7
		c0,2.4,0.2,4.9-0.3,7.3c-0.3,1.7-2.4,1.8-3.8,1.8c-8.7,0-17.4,0-26.1,0v7.5H195c-12.8-2.3-25.6-4.5-38.4-6.7v-58.7
		C169.4,225.2,182.3,223,195.2,220.7z"/>
	<path class="st0" d="M200.2,229.9h27.7v52.8h-27.7v-5h6.7v-5.9h-6.7v-3.4h6.7v-5.9h-6.7v-3.4h6.7v-5.9h-6.7v-3.4h6.7v-5.9h-6.7
		v-3.4h6.7V235h-6.7V229.9z"/>
	<path class="st6" d="M210.2,235H222v5.9h-11.7V235z"/>
	<path class="st0" d="M181.4,242.8c1.9-0.1,3.8-0.3,5.7-0.3c-2.2,4.6-4.5,9.2-6.8,13.7c2.3,4.7,4.7,9.4,7,14.1c-2-0.1-4-0.2-6.1-0.4
		c-1.4-3.5-3.2-6.9-4.2-10.5c-1.1,3.4-2.8,6.6-4.1,10c-1.8,0-3.7-0.1-5.5-0.2c2.2-4.2,4.2-8.5,6.5-12.7c-1.9-4.3-4-8.6-5.9-12.8
		c1.8-0.1,3.7-0.2,5.5-0.3c1.2,3.3,2.6,6.5,3.6,9.9C178.3,249.6,180,246.3,181.4,242.8L181.4,242.8z"/>
	<path class="st6" d="M210.2,244.2H222v5.9h-11.7V244.2z M210.2,253.4H222v5.9h-11.7V253.4z M210.2,262.6H222v5.9h-11.7V262.6z
		 M210.2,271.9H222v5.9h-11.7V271.9z"/>
</g>
</svg>
