<?xml version="1.0" encoding="UTF-8"?>
<svg enable-background="new 0 0 723.8 887" version="1.1" viewBox="0 0 723.8 887" xml:space="preserve" xmlns="http://www.w3.org/2000/svg">
<style type="text/css">
	.st0{fill:#CCE673;}
	.st1{fill:#A8D42E;}
	.st2{fill:#FFFFFF;}
	.st3{fill:#207245;}
</style>
	<path class="st0" d="M230.9,0l347.2,0c48.8,0,48.8,105.5,48.8,105.5L231,105.7L230.9,0z"/>
	<path class="st1" d="m55.3 780.7s1.2 73.4-55.3 90.3h441.1c48.1 0 87.2-39 87.2-87.2v-693.5s-1.3-73.3 55.3-90.2h-441.1c-48.1 0-87.2 39-87.2 87.2v693.4z"/>
		<path class="st2" d="m438 172.5h-292.4c-5.5 0-10-4.5-10-10s4.5-10 10-10h292.4c5.5 0 10 4.5 10 10s-4.5 10-10 10z"/>
		<path class="st2" d="m438 225.1h-292.4c-5.5 0-10-4.5-10-10s4.5-10 10-10h292.4c5.5 0 10 4.5 10 10s-4.5 10-10 10z"/>
		<path class="st2" d="m438 277.7h-292.4c-5.5 0-10-4.5-10-10s4.5-10 10-10h292.4c5.5 0 10 4.5 10 10s-4.5 10-10 10z"/>
		<path class="st2" d="m438 590.7h-292.4c-5.5 0-10-4.5-10-10s4.5-10 10-10h292.4c5.5 0 10 4.5 10 10s-4.5 10-10 10z"/>
			<path class="st2" d="m282.5 381.2h-111.7c-5.5 0-10-4.5-10-10s4.5-10 10-10h111.7c5.5 0 10 4.5 10 10s-4.5 10-10 10z"/>
			<path class="st2" d="m282.5 429.8h-111.7c-5.5 0-10-4.5-10-10s4.5-10 10-10h111.7c5.5 0 10 4.5 10 10s-4.5 10-10 10z"/>
			<path class="st2" d="m282.5 478.4h-111.7c-5.5 0-10-4.5-10-10s4.5-10 10-10h111.7c5.5 0 10 4.5 10 10s-4.5 10-10 10z"/>
		<path class="st2" d="m438 643.3h-292.4c-5.5 0-10-4.5-10-10s4.5-10 10-10h292.4c5.5 0 10 4.5 10 10s-4.5 10-10 10z"/>
		<path class="st2" d="m438 695.9h-292.4c-5.5 0-10-4.5-10-10s4.5-10 10-10h292.4c5.5 0 10 4.5 10 10s-4.5 10-10 10z"/>
		<path class="st2" d="m363.6 424.7c-8.7-3-18.5-8-25-14.8-6.3-6.7-10.5-15.3-10.5-25.8 0-20.3 17.3-34.3 35.6-37.6v-10.1c0-4.6 3.8-8.4 8.4-8.4s8.4 3.8 8.4 8.4v9.9c10.2 1.4 20.9 5.9 30 12.1 4 2.7 4.9 8.2 1.9 12.1l-0.4 0.5c-2.8 3.7-8.1 4.4-11.8 1.5-5.9-4.5-12.9-8.3-19.8-9.7v49.6c26.1 11 37.6 24.3 37.6 45 0 23-15.7 37.1-37.6 40.6v14.9c0 4.6-3.8 8.4-8.4 8.4s-8.4-3.8-8.4-8.4v-14.9c-12.2-0.8-24.2-6.2-34.2-14-3.8-3-4.3-8.4-1.2-12.1l0.7-0.8c2.9-3.4 8-3.9 11.5-1.1 6.9 5.5 14.8 9.9 23.3 11.3l-0.1-56.6zm0.2-61.1c-11 3.5-17 9-17 21.1 0 8.7 4.3 15 17 21.2v-42.3zm16.5 117.9c11.3-3.2 18.8-11.5 18.8-23.5 0-13-5-19.8-18.8-26.3v49.8z"/>
	<path class="st3" d="m610.9 656h16v21.4c26.9 0 53.8 0.1 80.7-0.1 4.5 0.2 9.5-0.1 13.5 2.6 2.8 4 2.4 9 2.6 13.6-0.1 46.6-0.1 93.2-0.1 139.9-0.1 7.8 0.7 15.8-0.9 23.5-1.1 5.6-7.8 5.7-12.3 5.9-27.8 0.1-55.7-0.1-83.5 0v24.2h-16.7c-40.9-7.4-82-14.3-123-21.5v-188c41.3-7.2 82.5-14.3 123.7-21.5z"/>
	<path class="st2" d="m626.9 685.5h88.7v169.2h-88.7v-16.1h21.5v-18.8h-21.5v-10.7h21.5v-18.8h-21.5v-10.7h21.5v-18.8h-21.5v-10.7h21.5v-18.8h-21.5v-10.9h21.5v-18.8h-21.5v-16.1z"/>
	<path class="st3" d="m659.1 701.6h37.6v18.8h-37.6v-18.8z"/>
	<path class="st2" d="m566.8 726.8c6.1-0.4 12.2-0.8 18.3-1.1-7.2 14.7-14.4 29.4-21.7 44 7.4 15 14.9 30 22.3 45-6.5-0.4-12.9-0.8-19.4-1.2-4.6-11.2-10.1-22-13.4-33.7-3.7 10.9-8.9 21.2-13.1 31.9-5.9-0.1-11.8-0.3-17.7-0.6 6.9-13.5 13.6-27.1 20.7-40.6-6-13.8-12.7-27.4-18.9-41.2 5.9-0.4 11.8-0.7 17.7-1 4 10.5 8.4 20.9 11.7 31.6 3.7-11.3 9-22.1 13.5-33.1z"/>
	<path class="st3" d="m659.1 731.2h37.6v18.8h-37.6v-18.8zm0 29.5h37.6v18.8h-37.6v-18.8zm0 29.6h37.6v18.8h-37.6v-18.8zm0 29.5h37.6v18.8h-37.6v-18.8z"/>
</svg>
