<?xml version="1.0" encoding="UTF-8"?>
<svg enable-background="new 0 0 242.3 236.8" version="1.1" viewBox="0 0 242.3 236.8" xml:space="preserve" xmlns="http://www.w3.org/2000/svg">
<style type="text/css">
	.st0{fill:#207245;}
	.st1{fill:#FFFFFF;}
</style>
	<path class="st0" d="m126.7 0h16.4v22c27.6 0 55.1 0.1 82.7-0.1 4.7 0.2 9.8-0.1 13.8 2.6 2.8 4.1 2.5 9.3 2.7 13.9-0.1 47.8-0.1 95.6-0.1 143.4-0.1 8 0.7 16.2-0.9 24.1-1.1 5.7-8 5.9-12.6 6.1-28.5 0.1-57.1-0.1-85.6 0v24.8h-17.1c-42-7.6-84-14.7-126-22v-192.8c42.2-7.3 84.4-14.6 126.7-22z"/>
	<path class="st1" d="M143,30.3h90.9v173.5H143v-16.5h22V168h-22v-11h22v-19.3h-22v-11h22v-19.3h-22v-11h22V77.1h-22v-11h22V46.8   h-22V30.3z"/>
	<path class="st0" d="M176.1,46.8h38.6v19.3h-38.6V46.8z"/>
	<path class="st1" d="m81.5 72.6c6.2-0.4 12.5-0.8 18.7-1.1-7.3 15.1-14.7 30.1-22.2 45.1 7.6 15.4 15.3 30.7 22.9 46.2-6.6-0.4-13.3-0.8-19.9-1.3-4.7-11.5-10.4-22.6-13.7-34.6-3.7 11.2-9.1 21.7-13.4 32.7-6-0.1-12.1-0.3-18.1-0.6 7.1-13.9 13.9-27.8 21.2-41.6-6.2-14.2-13-28.1-19.4-42.2 6.1-0.4 12.1-0.7 18.2-1 4.1 10.8 8.6 21.4 12 32.4 3.6-11.7 9-22.7 13.7-34z"/>
	<path class="st0" d="m176.1 77.1h38.6v19.3h-38.6v-19.3zm0 30.3h38.6v19.3h-38.6v-19.3zm0 30.3h38.6v19.3h-38.6v-19.3zm0 30.2h38.6v19.3h-38.6v-19.3z"/>
</svg>
