<?xml version="1.0" encoding="utf-8"?>
<!-- Generator: Adobe Illustrator 22.1.0, SVG Export Plug-In . SVG Version: 6.00 Build 0)  -->
<svg version="1.1" id="Layer_1" xmlns="http://www.w3.org/2000/svg" xmlns:xlink="http://www.w3.org/1999/xlink" x="0px" y="0px"
	 viewBox="0 0 1000 1000" style="enable-background:new 0 0 1000 1000;" xml:space="preserve">
<style type="text/css">
	.st0{opacity:0.2;fill:#FFFFFF;enable-background:new    ;}
	.st1{opacity:0.3;fill:#FFFFFF;enable-background:new    ;}
	.st2{opacity:0.4;fill:#FFFFFF;enable-background:new    ;}
	.st3{fill:#FFFFFF;}
	.st4{fill:#207245;}
</style>
<path class="st0" d="M12.8,388.1l22.8-34c7.3-11,22-14.1,33.1-7.1l52.6,33.1c12,7.6,27.9,3.3,34.5-9.3l25.4-48.5
	c0.3-0.5,0.6-1,0.9-1.6l68-78.1c1.4-1.6,2.4-3.4,3.2-5.3l0,0l48.2-119.6c7.2-17.7,31-20.6,42.2-5.3l0,0c2.4,3.4,4,7.2,4.5,11.4
	l8.8,72.8c0.7,5.4,3.2,10.5,7.1,14.4l59.3,35c3.3,3.2,7.3,5.4,11.8,6.4l78.5,17.2c7.3,1.6,13.5,6.6,16.7,13.4l27.7,58.9
	c5.3,11.3,18.4,16.7,30.1,12.5l84.3-30c5.7-2,11.9-1.9,17.4,0.4l37.3,15.4c7,2.8,12.2,8.8,14.1,16.1l31.5,115.6
	c3.2,11.6,14.3,19.1,26.2,17.8l44.9-5.2c14.4-1.6,27.1,9.7,27.1,24.1v104.3c0,146.6-118.8,265.4-265.4,265.4H274.1
	C127.5,878.8,8.7,760,8.7,613.5V401.7C8.7,396.9,10.2,392.1,12.8,388.1z"/>
<path class="st1" d="M9.6,213.9l11.2-40c6.1-21.7,36-24.1,45.4-3.6l12.9,27.9c2.4,5.2,6.6,9.3,11.6,11.8l61.1,28.9
	c5.3,2.5,9.6,6.9,11.9,12.3l18.8,43.6c3.9,9,12.8,14.8,22.6,14.7l21-0.3c9.2-0.1,17.8,5,21.9,13.2l29.1,56.7
	c4.1,8.1,12.5,13.2,21.6,13.2h85.4c5.6,0,11-1.9,15.3-5.4l50-40.5c11.6-9.5,29-6.2,36.4,6.9l24.4,42.9c7.6,13.5,25.7,16.4,37.3,6.2
	l28.1-24.9c3.3-2.8,5.7-6.6,7-10.6l32.3-98.6c1.3-4.1,3.6-7.6,6.8-10.4l54.6-49.5c5.6-5.1,13.3-7.2,20.7-5.9l56.7,10.4
	c7.8,1.5,16-1,21.6-6.7l54.1-54.1c15.3-15.3,41.5-4.5,41.5,17.2v444.4c0,146.6-118.8,265.4-265.4,265.4H274.1
	C127.5,878.8,8.7,760,8.7,613.5V220.4C8.7,218.3,9,216,9.6,213.9z"/>
<path class="st2" d="M274.1,878.8h331.6C752.2,878.8,871,760,871,613.5V351c0-8.5-4.4-16.3-11.6-20.7L804,296.2
	c-8.5-5.2-19.3-4.7-27.3,1.3L708,349.1c-11.1,8.4-27,5.7-34.8-5.9l-70.5-105.1c-11.4-17-37.3-13.2-43.4,6.3L499.6,437
	c-1.3,4.2-3.8,8-7.1,11l-39.8,35.4c-7.7,6.8-18.7,8.1-27.7,3.2l-22.4-12.2c-8.5-4.6-18.7-3.7-26.3,2.1l-94.4,72.1
	c-1.4,1-2.6,2.2-3.7,3.4l-25.4,29.7c-6.8,7.9-17.9,10.6-27.5,6.7L100,537.9c-7.7-3.1-16.4-2.1-23.2,2.8l-58,41.2
	c-6.4,4.7-10.2,12-10.2,19.8v11.6C8.7,760,127.5,878.8,274.1,878.8z"/>
<path class="st3" d="M274.1,878.8h331.6C752.2,878.8,871,760,871,613.5l0,0c0-21.4-25-33.1-41.4-19.3l-2.4,2.1
	c-8.3,6.9-19.9,7.8-29.1,2.3l-15.2-9.1c-0.9-0.6-2-1.1-2.9-1.6l-77-33.3c-0.3-0.2-0.7-0.1-1,0.2l-60.3,29.3
	c-12.2,6-26.8,0.8-32.6-11.5c-5.5-11.7-12.4-26.2-18.2-38c-3.7-7.7-15-6.4-16.9,1.9l-32.2,137.3c-1.3,5.4-4.4,10.3-8.9,13.7
	c-9.9,7.6-28.7,22-44.3,33.9c-12.8,9.8-31.6,4.6-37.4-10.5c-16.5-42.6-45.8-118.5-56.5-146.1c-4.4-4.3-10.1-9.9-14.5-14.1
	l-58.5-21.3c-6.5-2.3-11.6-7.2-14.4-13.5l-12.2-27.5c-3-6.8-9-12-16.1-14.1l-24.8-7.1c-5.6-1.6-10.4-5.1-13.8-9.8l-11.2-16.1
	c-9.1-13.2-28.2-14.6-39.2-2.8L131.6,501c-6.1,6.6-15.4,9.4-24.1,7.3l-68-15.9c-15.6-3.6-30.7,8.4-30.7,24.6v96.3
	C8.7,760,127.5,878.8,274.1,878.8z"/>
<g>
	<path class="st4" d="M879.4,662.5h16.4v22c27.6,0,55.1,0.1,82.7-0.1c4.7,0.2,9.8-0.1,13.8,2.6c2.8,4.1,2.5,9.3,2.7,13.9
		c-0.1,47.8-0.1,95.6-0.1,143.4c-0.1,8,0.7,16.2-0.9,24.1c-1.1,5.7-8,5.9-12.6,6.1c-28.5,0.1-57.1-0.1-85.6,0v24.8h-17.1
		c-42-7.6-84-14.7-126-22V684.5C794.9,677.2,837.1,669.9,879.4,662.5z"/>
	<path class="st3" d="M895.7,692.8h90.9v173.5h-90.9v-16.5h22v-19.3h-22v-11h22v-19.3h-22v-11h22v-19.3h-22v-11h22v-19.3h-22v-11h22
		v-19.3h-22V692.8z"/>
	<path class="st4" d="M928.8,709.3h38.6v19.3h-38.6V709.3z"/>
	<path class="st3" d="M834.2,735.1c6.2-0.4,12.5-0.8,18.7-1.1c-7.3,15.1-14.7,30.1-22.2,45.1c7.6,15.4,15.3,30.7,22.9,46.2
		c-6.6-0.4-13.3-0.8-19.9-1.3c-4.7-11.5-10.4-22.6-13.7-34.6c-3.7,11.2-9.1,21.7-13.4,32.7c-6-0.1-12.1-0.3-18.1-0.6
		c7.1-13.9,13.9-27.8,21.2-41.6c-6.2-14.2-13-28.1-19.4-42.2c6.1-0.4,12.1-0.7,18.2-1c4.1,10.8,8.6,21.4,12,32.4
		C824.1,757.4,829.5,746.4,834.2,735.1L834.2,735.1z"/>
	<path class="st4" d="M928.8,739.6h38.6v19.3h-38.6V739.6z M928.8,769.9h38.6v19.3h-38.6V769.9z M928.8,800.2h38.6v19.3h-38.6V800.2
		z M928.8,830.4h38.6v19.3h-38.6V830.4z"/>
</g>
</svg>
