<?xml version="1.0" encoding="utf-8"?>
<!-- Generator: Adobe Illustrator 22.1.0, SVG Export Plug-In . SVG Version: 6.00 Build 0)  -->
<svg version="1.1" id="Camada_1" xmlns="http://www.w3.org/2000/svg" xmlns:xlink="http://www.w3.org/1999/xlink" x="0px" y="0px"
	 viewBox="0 0 500 500" style="enable-background:new 0 0 500 500;" xml:space="preserve">
<style type="text/css">
	.st0{fill:#FF4500;}
	.st1{fill:#FFFFFF;}
	.st2{clip-path:url(#SVGID_2_);}
	.st3{fill:#A82800;}
	.st4{fill:#3BAD4C;}
	.st5{fill:#207245;}
</style>
<g>
	<path class="st0" d="M54,446.7c-20.6,0-37.4-16.8-37.4-37.4v-327C16.6,61.8,33.4,45,54,45h327c20.6,0,37.4,16.8,37.4,37.4v327
		c0,20.6-16.8,37.4-37.4,37.4C380.9,446.7,54,446.7,54,446.7z"/>
	<path class="st1" d="M380.9,49.6c18.1,0,32.8,14.7,32.8,32.8v327c0,18.1-14.7,32.8-32.8,32.8H54c-18.1,0-32.8-14.7-32.8-32.8v-327
		c0-18.1,14.7-32.8,32.8-32.8L380.9,49.6 M380.9,40.4H54c-23.1,0-41.9,18.8-41.9,41.9v327c0,23.1,18.8,41.9,41.9,41.9h327
		c23.1,0,41.9-18.8,41.9-41.9v-327C422.9,59.2,404.1,40.4,380.9,40.4z"/>
	<g>
		<defs>
			<path id="SVGID_1_" d="M380.9,442.1H54c-18.1,0-32.8-14.7-32.8-32.8v-327c0-18.1,14.7-32.8,32.8-32.8h327
				c18.1,0,32.8,14.7,32.8,32.8v327C413.7,427.4,399.1,442.1,380.9,442.1z"/>
		</defs>
		<clipPath id="SVGID_2_">
			<use xlink:href="#SVGID_1_"  style="overflow:visible;"/>
		</clipPath>
		<g class="st2">
			<rect x="21.2" y="49.6" class="st3" width="392.6" height="92.7"/>
		</g>
	</g>
	<path class="st1" d="M191,231.6h-39c-7.7,0-14-6.3-14-14v-39c0-7.7,6.3-14,14-14h39c7.7,0,14,6.3,14,14v39
		C205.1,225.3,198.8,231.6,191,231.6z"/>
	<path class="st1" d="M282.9,231.6h-39c-7.7,0-14-6.3-14-14v-39c0-7.7,6.3-14,14-14h39c7.7,0,14,6.3,14,14v39
		C296.9,225.3,290.6,231.6,282.9,231.6z"/>
	<path class="st1" d="M374.8,231.6h-39c-7.7,0-14-6.3-14-14v-39c0-7.7,6.3-14,14-14h39c7.7,0,14,6.3,14,14v39
		C388.9,225.3,382.6,231.6,374.8,231.6z"/>
	<path class="st1" d="M99.1,323.5h-39c-7.7,0-14-6.3-14-14v-39c0-7.7,6.3-14,14-14h39c7.7,0,14,6.3,14,14v39
		C113.1,317.2,106.8,323.5,99.1,323.5z"/>
	<path class="st1" d="M191,323.5h-39c-7.7,0-14-6.3-14-14v-39c0-7.7,6.3-14,14-14h39c7.7,0,14,6.3,14,14v39
		C205.1,317.2,198.8,323.5,191,323.5z"/>
	<path class="st4" d="M242.6,321c-5.6,0-10.3-4.6-10.3-10.3v-41.6c0-5.6,4.6-10.3,10.3-10.3h41.6c5.6,0,10.3,4.6,10.3,10.3v41.6
		c0,5.6-4.6,10.3-10.3,10.3H242.6z"/>
	<path class="st1" d="M284.2,261.4c4.3,0,7.7,3.5,7.7,7.7v41.6c0,4.3-3.5,7.7-7.7,7.7h-41.6c-4.3,0-7.7-3.5-7.7-7.7v-41.6
		c0-4.3,3.5-7.7,7.7-7.7H284.2 M284.2,256.4h-41.6c-7,0-12.8,5.7-12.8,12.8v41.6c0,7,5.7,12.8,12.8,12.8h41.6
		c7,0,12.8-5.7,12.8-12.8v-41.6C296.9,262.2,291.3,256.4,284.2,256.4z"/>
	<path class="st1" d="M374.8,323.5h-39c-7.7,0-14-6.3-14-14v-39c0-7.7,6.3-14,14-14h39c7.7,0,14,6.3,14,14v39
		C388.9,317.2,382.6,323.5,374.8,323.5z"/>
	<path class="st1" d="M99.1,415.4h-39c-7.7,0-14-6.3-14-14v-39c0-7.7,6.3-14,14-14h39c7.7,0,14,6.3,14,14v39
		C113.1,409.1,106.8,415.4,99.1,415.4z"/>
	<path class="st1" d="M191,415.4h-39c-7.7,0-14-6.3-14-14v-39c0-7.7,6.3-14,14-14h39c7.7,0,14,6.3,14,14v39
		C205.1,409.1,198.8,415.4,191,415.4z"/>
	<path class="st1" d="M282.9,415.4h-39c-7.7,0-14-6.3-14-14v-39c0-7.7,6.3-14,14-14h39c7.7,0,14,6.3,14,14v39
		C296.9,409.1,290.6,415.4,282.9,415.4z"/>
	<path class="st0" d="M312.7,91.1c-6.8,0-12.4-5.6-12.4-12.4V21.4c0-6.8,5.6-12.4,12.4-12.4c6.8,0,12.4,5.6,12.4,12.4v57.3
		C325.1,85.5,319.5,91.1,312.7,91.1z"/>
	<path class="st0" d="M122.2,91.1c-6.8,0-12.4-5.6-12.4-12.4V21.4c0-6.8,5.6-12.4,12.4-12.4s12.4,5.6,12.4,12.4v57.3
		C134.6,85.5,129.1,91.1,122.2,91.1z"/>
	<path class="st1" d="M271,299.9c0-1.6-0.5-3-1.7-4.2c-1.2-1.1-3.1-2.2-5.8-3.1c-3.8-1.2-6.7-2.7-8.4-4.6c-1.7-1.9-2.6-4.3-2.6-7.2
		s0.8-5.4,2.6-7.3c1.7-1.9,4.1-3,7.1-3.4v-9.6h4v9.6c3,0.5,5.4,1.6,7,3.8c1.6,2.1,2.6,5,2.6,8.7h-5c0-2.6-0.6-4.6-1.8-6.1
		c-1.2-1.5-2.8-2.3-4.9-2.3c-2.2,0-3.7,0.5-4.9,1.6c-1.1,1.1-1.7,2.6-1.7,4.6c0,1.8,0.6,3.3,1.8,4.4c1.2,1.1,3.2,2.1,5.9,3
		c2.7,0.9,4.9,1.9,6.5,2.9c1.5,1.1,2.6,2.3,3.4,3.7s1.1,3.1,1.1,5c0,3-0.9,5.5-2.7,7.4c-1.8,1.8-4.4,2.9-7.7,3.3v10.6h-4v-10.6
		c-3.4-0.3-6-1.5-7.8-3.6c-1.9-2.1-2.8-4.9-2.8-8.5h5c0,2.5,0.6,4.5,2,5.7c1.3,1.4,3.2,2,5.6,2c2.4,0,4.2-0.5,5.6-1.7
		C270.3,303.4,271,301.9,271,299.9L271,299.9z"/>
</g>
<path class="st5" d="M417.2,348.5h10.1v13.6c17.1,0,34.1,0,51.2-0.1c2.9,0.1,6-0.1,8.6,1.6c1.8,2.5,1.6,5.7,1.7,8.6
	c-0.1,29.6-0.1,59.1,0,88.7c-0.1,5,0.5,10-0.6,14.9c-0.7,3.5-4.9,3.6-7.8,3.7c-17.6,0.1-35.3,0-53,0V495h-10.6
	c-26-4.7-52-9.1-78-13.6V362.1C364.9,357.6,391.1,353.1,417.2,348.5z"/>
<path class="st1" d="M427.3,367.2h56.2v107.3h-56.2v-10.2h13.6v-11.9h-13.6v-6.8h13.6v-11.9h-13.6v-6.8h13.6v-11.9h-13.6v-6.8h13.6
	v-11.9h-13.6v-6.8h13.6v-11.9h-13.6V367.2z"/>
<path class="st5" d="M447.8,377.5h23.8v11.9h-23.8V377.5z"/>
<path class="st1" d="M389.2,393.4c3.8-0.3,7.7-0.5,11.6-0.7c-4.5,9.3-9.1,18.6-13.7,27.9c4.7,9.5,9.5,19,14.2,28.6
	c-4.1-0.2-8.2-0.5-12.3-0.8c-2.9-7.1-6.4-14-8.5-21.4c-2.3,6.9-5.6,13.4-8.3,20.2c-3.7-0.1-7.5-0.2-11.2-0.4
	c4.4-8.6,8.6-17.2,13.1-25.7c-3.8-8.8-8-17.4-12-26.1c3.7-0.2,7.5-0.4,11.2-0.6c2.5,6.7,5.3,13.2,7.4,20.1
	C383,407.2,386.3,400.4,389.2,393.4L389.2,393.4z"/>
<path class="st5" d="M447.8,396.2h23.8v11.9h-23.8V396.2z M447.8,414.9h23.8v11.9h-23.8V414.9z M447.8,433.7h23.8v11.9h-23.8V433.7z
	 M447.8,452.4h23.8v11.9h-23.8V452.4z"/>
</svg>
