<?xml version="1.0" encoding="utf-8"?>
<!-- Generator: Adobe Illustrator 22.1.0, SVG Export Plug-In . SVG Version: 6.00 Build 0)  -->
<svg version="1.1" id="Layer_1" xmlns="http://www.w3.org/2000/svg" xmlns:xlink="http://www.w3.org/1999/xlink" x="0px" y="0px"
	 viewBox="0 0 1000 1000" style="enable-background:new 0 0 1000 1000;" xml:space="preserve">
<style type="text/css">
	.st0{fill:#D60057;}
	.st1{fill:#FFF9CF;}
	.st2{fill:none;stroke:#E2E71F;stroke-width:30;stroke-linecap:round;stroke-miterlimit:10;}
	.st3{fill:none;stroke:#231F20;stroke-width:20;stroke-linecap:round;stroke-miterlimit:10;}
	.st4{fill:#207245;}
	.st5{fill:#FFFFFF;}
</style>
<circle class="st0" cx="500" cy="350" r="154"/>
<g>
	<path class="st1" d="M731.8,47.1H268.3c-22.9,0-41.5,18.6-41.5,41.5v851.2l75.8-105.1l65.8,91.3l65.8-91.3L500,926l65.8-91.3
		l65.8,91.3l65.8-91.3l0,0l75.9,105.2V88.6C773.3,65.7,754.7,47.1,731.8,47.1z M500,488.1c-76.3,0-138.1-61.8-138.1-138.1
		S423.7,211.9,500,211.9S638.1,273.7,638.1,350S576.3,488.1,500,488.1z"/>
	<path class="st0" d="M722.7,73.7c16.7,0,30.3,13.6,30.3,30.3v788.4l-63.2-87.7l-63.2,87.7l-63.2-87.7L500,892.3l-63.2-87.7
		l-63.2,87.7l-63.2-87.7L247,892.3V103.9c0-16.7,13.6-30.3,30.3-30.3L722.7,73.7 M731.7,37.1H268.3c-28.4,0-51.5,23.1-51.5,51.5
		v882.2l36.2-50.2l49.6-68.8l49.6,68.8l16.2,22.5l16.2-22.5l49.6-68.8l49.6,68.8l16.2,22.5l16.2-22.5l49.6-68.8l49.6,68.8l16.2,22.5
		l16.2-22.5l49.6-68.8l49.6,68.8l36.2,50.2V88.6C783.2,60.2,760.1,37.1,731.7,37.1z"/>
	<polyline class="st2" points="427.9,344.6 483,400.1 572.1,309.6 	"/>
	<line class="st3" x1="409.2" y1="608.5" x2="590.8" y2="608.5"/>
	<line class="st3" x1="353.1" y1="654.1" x2="646.9" y2="654.1"/>
</g>
<g>
	<path class="st4" d="M798.7,706.8H817v24.6c30.7,0,61.4,0.1,92.2-0.1c5.2,0.2,10.9-0.2,15.4,2.9c3.2,4.5,2.8,10.3,3,15.5
		c-0.2,53.3-0.1,106.5-0.1,159.8c-0.2,8.9,0.8,18-1,26.9c-1.2,6.4-8.9,6.5-14,6.8c-31.8,0.1-63.6-0.1-95.5,0v27.6h-19.1
		c-46.8-8.5-93.6-16.4-140.5-24.6V731.4C704.5,723.2,751.6,715.2,798.7,706.8z"/>
	<path class="st5" d="M817,740.6h101.3V934H817v-18.4h24.6v-21.5H817v-12.3h24.6v-21.5H817V848h24.6v-21.5H817v-12.3h24.6v-21.5H817
		v-12.3h24.6V759H817V740.6z"/>
	<path class="st4" d="M853.8,759h43v21.5h-43V759z"/>
	<path class="st5" d="M748.3,787.8c6.9-0.5,13.9-0.9,20.9-1.3c-8.2,16.8-16.4,33.6-24.8,50.3c8.4,17.2,17.1,34.3,25.5,51.4
		c-7.4-0.4-14.8-0.9-22.2-1.4c-5.2-12.8-11.6-25.2-15.3-38.6c-4.2,12.5-10.1,24.2-14.9,36.4c-6.7-0.1-13.4-0.4-20.2-0.6
		c7.9-15.4,15.5-31,23.6-46.3c-6.9-15.8-14.5-31.3-21.6-47c6.8-0.4,13.5-0.8,20.3-1.2c4.6,12,9.6,23.8,13.4,36.2
		C737.1,812.7,743.1,800.4,748.3,787.8L748.3,787.8z"/>
	<path class="st4" d="M853.8,792.8h43v21.5h-43V792.8z M853.8,826.5h43V848h-43V826.5z M853.8,860.3h43v21.5h-43V860.3z
		 M853.8,894.1h43v21.5h-43V894.1z"/>
</g>
</svg>
