<?xml version="1.0" encoding="utf-8"?>
<!-- Generator: Adobe Illustrator 22.1.0, SVG Export Plug-In . SVG Version: 6.00 Build 0)  -->
<svg version="1.1" id="Camada_1" xmlns="http://www.w3.org/2000/svg" xmlns:xlink="http://www.w3.org/1999/xlink" x="0px" y="0px"
	 viewBox="0 0 100 100" style="enable-background:new 0 0 100 100;" xml:space="preserve">
<style type="text/css">
	.st0{fill:#E15200;}
	.st1{fill:#F28E2A;}
	.st2{fill:#FFFFFF;}
	.st3{fill:#EFA220;}
	.st4{fill:#F1BD4A;}
	.st5{fill:#207245;}
</style>
<g>
	<g>
		<g>
			<g>
				<path class="st0" d="M80.1,96.4H31.3C18.5,96.4,8.1,86,8.1,73.2V24.5c0-1.3,1.1-2.3,2.3-2.3H80c1.3,0,2.3,1.1,2.3,2.3V94
					C82.4,95.4,81.4,96.4,80.1,96.4z"/>
			</g>
		</g>
		<g>
			<g>
				<path class="st1" d="M29.5,87.8c-0.5,5.8,1.7,8.6,1.7,8.6c-10.9,0-23.1-7.6-23.1-23.1c3.5,15.8,13.7,15,19.1,12.8
					C28.4,85.8,29.6,86.5,29.5,87.8z"/>
			</g>
		</g>
		<g>
			<g>
				<path class="st2" d="M73.9,33.1H17.3c-0.8,0-1.4-0.7-1.4-1.4c0-0.7,0.7-1.4,1.4-1.4h56.6c0.8,0,1.4,0.7,1.4,1.4
					C75.3,32.3,74.7,33.1,73.9,33.1z"/>
			</g>
			<g>
				<path class="st2" d="M73.9,39.1H17.3c-0.8,0-1.4-0.7-1.4-1.4c0-0.7,0.7-1.4,1.4-1.4h56.6c0.8,0,1.4,0.7,1.4,1.4
					C75.3,38.3,74.7,39.1,73.9,39.1z"/>
			</g>
			<g>
				<path class="st2" d="M73.9,45.1H17.3c-0.8,0-1.4-0.7-1.4-1.4c0-0.8,0.7-1.4,1.4-1.4h56.6c0.8,0,1.4,0.7,1.4,1.4
					C75.3,44.3,74.7,45.1,73.9,45.1z"/>
			</g>
			<g>
				<path class="st2" d="M73.9,51.1H17.3c-0.8,0-1.4-0.7-1.4-1.4c0-0.7,0.7-1.4,1.4-1.4h56.6c0.8,0,1.4,0.7,1.4,1.4
					C75.3,50.3,74.7,51.1,73.9,51.1z"/>
			</g>
		</g>
		<g>
			<g>
				<g>
					<path class="st1" d="M51.9,88.8h-0.7c-0.2,0-0.3-0.1-0.3-0.3s0.1-0.3,0.3-0.3h0.7c0.2,0,0.3,0.1,0.3,0.3
						C52.3,88.7,52.2,88.8,51.9,88.8z"/>
				</g>
			</g>
			<g>
				<g>
					<path class="st1" d="M70.8,88.8h-1.3c-0.2,0-0.3-0.1-0.3-0.3s0.1-0.3,0.3-0.3h1.3c0.2,0,0.3,0.1,0.3,0.3
						C71.1,88.7,70.9,88.8,70.8,88.8z M66.9,88.8h-1.2c-0.2,0-0.3-0.1-0.3-0.3s0.1-0.3,0.3-0.3H67c0.2,0,0.3,0.1,0.3,0.3
						C67.3,88.7,67.2,88.8,66.9,88.8z M63.2,88.8h-1.3c-0.2,0-0.3-0.1-0.3-0.3s0.1-0.3,0.3-0.3h1.3c0.2,0,0.3,0.1,0.3,0.3
						C63.6,88.7,63.4,88.8,63.2,88.8z M59.4,88.8h-1.3c-0.2,0-0.3-0.1-0.3-0.3s0.1-0.3,0.3-0.3h1.3c0.2,0,0.3,0.1,0.3,0.3
						C59.8,88.7,59.7,88.8,59.4,88.8z M55.7,88.8h-1.3c-0.2,0-0.3-0.1-0.3-0.3s0.1-0.3,0.3-0.3h1.3c0.2,0,0.3,0.1,0.3,0.3
						C56.1,88.7,55.9,88.8,55.7,88.8z"/>
				</g>
			</g>
			<g>
				<g>
					<path class="st1" d="M73.9,88.8h-0.7c-0.2,0-0.3-0.1-0.3-0.3s0.1-0.3,0.3-0.3h0.7c0.2,0,0.3,0.1,0.3,0.3S74.1,88.8,73.9,88.8z"
						/>
				</g>
			</g>
		</g>
		<g>
			<g>
				<path class="st2" d="M53.6,91.3c1.4-0.2,2.4-1.2,3.2-2.3c0.8-1.1,1.3-2.4,1.7-3.6c0.9-2.5,1.5-5.2,1.5-7.9h1.2
					c0.1,2.8,0.4,5.7,1.1,8.4c0.3,1.4,0.8,2.7,1.4,3.9c0.3,0.5,0.9,1.1,1.4,1.3c0.5,0.2,1-0.4,1.3-1.1c0.9-2.6,0.8-5.7,0.2-8.4
					c-0.3-1.4-0.7-2.7-1.3-4c-0.5-1.2-1.4-2.4-2.5-3.2c-1.1-0.8-2.4-1.1-3.7-1c-1.3,0.1-2.5,0.5-3,1.6c-0.7,1-0.7,2.4-0.3,3.6
					c0.2,1.3,0.9,2.5,1.6,3.7c2.9,4.7,8.6,7.4,14.3,7.7c0,0,0.1,0,0.1,0.1c0,0,0,0.1-0.1,0.1c-5.8,0.4-12-2.1-15.4-7.1
					c-0.9-1.3-1.5-2.6-1.8-4.1s-0.3-3.3,0.5-4.7c0.4-0.8,1.1-1.3,1.8-1.6c0.8-0.3,1.5-0.5,2.4-0.5c1.5-0.1,3.2,0.4,4.5,1.4
					c2.5,2.1,3.4,5.1,3.8,7.9c0.2,1.4,0.2,2.9,0.2,4.4c-0.1,1.4-0.2,2.9-0.8,4.4c-0.1,0.3-0.3,0.7-0.5,1c-0.1,0.1-0.3,0.3-0.5,0.3
					c-0.2,0.1-0.4,0-0.7,0c-0.8-0.2-1.4-0.9-1.7-1.4c-0.9-1.2-1.4-2.6-1.8-4c-0.9-2.8-1.4-5.7-1.4-8.6l0,0c0-0.3,0.2-0.7,0.7-0.7
					c0.3,0,0.7,0.2,0.7,0.7l0,0c0,1.4-0.2,2.8-0.5,4.2c-0.3,1.4-0.8,2.7-1.3,4s-1.2,2.6-2.2,3.7c-0.9,1.1-2.2,2.1-3.6,2.1
					C53.6,91.3,53.6,91.3,53.6,91.3L53.6,91.3z"/>
			</g>
		</g>
		<g>
			<g>
				<path class="st2" d="M27.9,68.3H17.5c-0.7,0-1.1-0.5-1.1-1.1V56.7c0-0.7,0.5-1.1,1.1-1.1h10.4c0.7,0,1.1,0.5,1.1,1.1V67
					C29,67.7,28.4,68.3,27.9,68.3z"/>
			</g>
		</g>
		<g>
			<g>
				<path class="st2" d="M53,68.3H34.7c-0.7,0-1.1-0.5-1.1-1.1V56.7c0-0.7,0.5-1.1,1.1-1.1H53c0.7,0,1.1,0.5,1.1,1.1V67
					C54.2,67.7,53.7,68.3,53,68.3z"/>
			</g>
		</g>
		<g>
			<g>
				<g>
					<g>
						<path class="st3" d="M30.9,2.5v6.6c0,0.5-0.4,1.1-1,1.1l0,0c-0.5,0.1-1.1-0.2-1.3-0.8l-2-6.5c-0.2-0.5-0.8-0.9-1.4-0.8
							c-0.3,0.1-0.7,0.2-1,0.2c-0.3,0.1-0.7,0.2-1,0.3c-0.5,0.2-0.9,0.9-0.8,1.4l2,6.5c0.2,0.5-0.1,1.1-0.7,1.3l0,0
							c-0.5,0.2-1.2,0.1-1.5-0.3L18.5,6c-0.3-0.5-1.1-0.7-1.6-0.3C7.9,12,3.8,25.4,7.3,36.4l6.9-2.1l36-11l6.9-2.1
							C53.7,10.1,43,1.3,32,1.1C31.5,1.3,30.9,1.8,30.9,2.5z"/>
					</g>
				</g>
			</g>
			<g>
				<g>
					<g>
						<path class="st4" d="M33.8,33.6c-14.1,4.4-27.1,6-27.6,6.1c-1.3,0.2-2.6-0.8-2.7-2.2c-0.2-1.3,0.8-2.6,2.2-2.7
							c0.1,0,13.1-1.6,26.8-5.9c13.7-4.1,26.1-10.3,26.2-10.3c1.2-0.7,2.7-0.1,3.3,1.1c0.7,1.2,0.1,2.7-1.1,3.3
							C60.3,23.1,47.9,29.3,33.8,33.6z"/>
					</g>
				</g>
			</g>
			<g>
				<g>
					<g>
						<path class="st4" d="M36.2,6.1c1.5-1.8,10.6,3,13.3,7.7c2.7,4.7-2,6.4-3.7,5.4s-1.4-4.9-3.6-7.9C39.6,8,34.7,7.9,36.2,6.1z"/>
					</g>
				</g>
			</g>
		</g>
	</g>
	<g>
		<path class="st5" d="M83,71.2h1.9v2.6c3.2,0,6.4,0,9.7,0c0.5,0,1.1,0,1.6,0.3c0.3,0.5,0.3,1.1,0.3,1.6c0,5.6,0,11.2,0,16.8
			c0,0.9,0.1,1.9-0.1,2.8c-0.1,0.7-0.9,0.7-1.5,0.7c-3.3,0-6.7,0-10,0v2.9h-2c-4.9-0.9-9.8-1.7-14.7-2.6V73.7
			C73.1,72.9,78,72,83,71.2z"/>
		<path class="st2" d="M84.9,74.7h10.6V95H84.9v-1.9h2.6v-2.3h-2.6v-1.3h2.6v-2.3h-2.6V86h2.6v-2.3h-2.6v-1.3h2.6v-2.3h-2.6v-1.3
			h2.6v-2.3h-2.6V74.7z"/>
		<path class="st5" d="M88.8,76.6h4.5v2.3h-4.5V76.6z"/>
		<path class="st2" d="M77.7,79.7c0.7-0.1,1.5-0.1,2.2-0.1c-0.9,1.8-1.7,3.5-2.6,5.3c0.9,1.8,1.8,3.6,2.7,5.4
			c-0.8,0-1.5-0.1-2.3-0.1c-0.5-1.3-1.2-2.6-1.6-4c-0.4,1.3-1.1,2.5-1.6,3.8c-0.7,0-1.4,0-2.1-0.1c0.8-1.6,1.6-3.3,2.5-4.9
			c-0.7-1.7-1.5-3.3-2.3-4.9c0.7,0,1.4-0.1,2.1-0.1c0.5,1.3,1,2.5,1.4,3.8C76.5,82.3,77.1,81,77.7,79.7L77.7,79.7z"/>
		<path class="st5" d="M88.8,80.2h4.5v2.3h-4.5V80.2z M88.8,83.7h4.5V86h-4.5V83.7z M88.8,87.3h4.5v2.3h-4.5V87.3z M88.8,90.8h4.5
			v2.3h-4.5V90.8z"/>
	</g>
</g>
</svg>
