<?xml version="1.0" encoding="UTF-8"?>
<svg enable-background="new 0 0 424.5 117.3" version="1.1" viewBox="0 0 424.5 117.3" xml:space="preserve" xmlns="http://www.w3.org/2000/svg">
<style type="text/css">
	.st0{fill:#FFFFFF;}
</style>
	<path class="st0" d="M0,0.5h4l8.9,29.6H13l9-29.6H26L14.8,36.6h-3.7L0,0.5z"/>
	<path class="st0" d="m48.4 31.1c-1.7 3-4.1 6.1-10 6.1-5.8 0-11.3-4-11.3-13.5 0-8.4 4.2-13.5 10.6-13.5 5.4 0 9.9 3.5 9.9 11.8v2.4h-16.9c0 5.7 3.4 9.7 7.7 9.7 3.2 0 5.7-1.7 7.2-4.4l2.8 1.4zm-4.4-9.9c0-4.8-2.3-8-6.2-8-4.4 0-6.7 3.2-7 8h13.2z"/>
	<path class="st0" d="m59.5 10.6v30.2c0 3.2-2 5.5-5.4 5.5-1.2 0-2.3-0.2-3-0.6v-3c0.5 0.3 1.2 0.4 1.9 0.4 2 0 2.8-0.6 2.8-2.6v-29.9h3.7zm0-6.3h-3.6v-4.3h3.6v4.3z"/>
	<path class="st0" d="m66.8 15.6c1.7-3 4.8-5.5 9.8-5.5 4.4 0 9 2.1 9 7.8v13.1c0 2.9 0.3 4.3 0.6 5.6h-3.7l-0.4-3.6c-1.8 2-4.7 4.1-8.6 4.1-4 0-7.4-2.4-7.4-7.2 0-5.7 4.3-8.6 15.9-10.6v-1.3c0-3.5-2.3-4.8-5.3-4.8-4 0-6 2.3-6.7 4l-3.2-1.6zm15.2 7c-8.3 1.4-12.3 3.8-12.3 7.4 0 2.4 2.3 4 4.3 4 2.6 0 5.9-1.9 8-4.3v-7.1z"/>
	<path class="st0" d="m112.3 10.6v3.5h0.1c2.1-2.3 4.8-4 7.7-4 3.8 0 7.5 2 7.5 7.6v18.9h-3.6v-18.8c0-3.5-1.7-4.6-4.3-4.6-2.7 0-5.8 2.2-7.5 4v19.5h-3.6v-26h3.7z"/>
	<path class="st0" d="m144.5 37.1c-7.1 0-10.7-6-10.7-13.5s3.6-13.5 10.7-13.5 10.7 6 10.7 13.5-3.6 13.5-10.7 13.5zm0-23.9c-4.3 0-7.1 3.7-7.1 10.4s2.8 10.4 7.1 10.4 7-3.7 7-10.4-2.7-10.4-7-10.4z"/>
	<path class="st0" d="m161.1 30c1.7 2.5 4.2 4 7.4 4 3.9 0 5.6-2.1 5.6-4.3 0-6.6-15.4-3.1-15.1-12.6 0.2-4.5 3.6-7.1 8.6-7 3.4 0.1 7.2 1.9 8.9 4.6l-2.5 2.2c-2-2.5-3.9-3.7-6.7-3.7-3.1 0-4.7 1.5-4.7 3.9 0 5.7 15.1 2.8 15.1 12.5 0 5.1-4.4 7.6-9.1 7.6-4 0-8-1.8-10.4-5l2.9-2.2z"/>
	<path class="st0" d="m183.3 30c1.7 2.5 4.2 4 7.4 4 3.9 0 5.6-2.1 5.6-4.3 0-6.6-15.4-3.1-15.1-12.6 0.2-4.5 3.6-7.1 8.6-7 3.4 0.1 7.2 1.9 8.9 4.6l-2.5 2.2c-2-2.5-3.9-3.7-6.7-3.7-3.1 0-4.7 1.5-4.7 3.9 0 5.7 15.1 2.8 15.1 12.5 0 5.1-4.4 7.6-9.1 7.6-4 0-8-1.8-10.4-5l2.9-2.2z"/>
	<path class="st0" d="m213.9 37.1c-7.1 0-10.7-6-10.7-13.5s3.6-13.5 10.7-13.5 10.7 6 10.7 13.5c-0.1 7.5-3.6 13.5-10.7 13.5zm0-23.9c-4.3 0-7.1 3.7-7.1 10.4s2.8 10.4 7.1 10.4 7-3.7 7-10.4-2.7-10.4-7-10.4z"/>
	<path class="st0" d="m260.4 18.4c-1-3.2-3.1-5.2-6.2-5.2-4.5 0-7.1 3.8-7.1 10.4s2.6 10.4 7.1 10.4c3.3 0 5.2-1.1 7.2-4.8l2.9 1.3c-2.6 4.4-4.9 6.6-10.1 6.6-6.5 0-10.7-5.1-10.7-13.5s4.2-13.5 10.7-13.5c5.3 0 7.9 3 9.5 7.1l-3.3 1.2z"/>
	<path class="st0" d="m269.5 15.6c1.7-3 4.9-5.5 9.8-5.5 4.4 0 9 2.1 9 7.8v13.1c0 2.9 0.3 4.3 0.6 5.6h-3.7l-0.4-3.6c-1.8 2-4.7 4.1-8.6 4.1-4 0-7.4-2.4-7.4-7.2 0-5.7 4.3-8.6 15.9-10.6v-1.3c0-3.5-2.3-4.8-5.3-4.8-4 0-6 2.3-6.7 4l-3.2-1.6zm15.1 7c-8.3 1.5-12.3 3.9-12.3 7.5 0 2.4 2.3 4 4.3 4 2.6 0 5.9-1.9 8-4.3v-7.2z"/>
	<path class="st0" d="m299.7 10.6v3.5h0.1c2-2.3 4.8-4 7.7-4 3.9 0 7.5 2 7.5 7.6v18.9h-3.6v-18.8c0-3.5-1.6-4.6-4.3-4.6s-5.8 2.2-7.5 4v19.5h-3.6v-26h3.7z"/>
	<path class="st0" d="m322.3 15.6c1.7-3 4.9-5.5 9.8-5.5 4.4 0 9 2.1 9 7.8v13.1c0 2.9 0.3 4.3 0.6 5.6h-3.7l-0.4-3.6c-1.8 2-4.7 4.1-8.6 4.1-4 0-7.4-2.4-7.4-7.2 0-5.7 4.4-8.6 15.9-10.6v-1.3c0-3.5-2.3-4.8-5.4-4.8-4 0-6 2.3-6.7 4l-3.1-1.6zm15.1 7c-8.3 1.5-12.3 3.9-12.3 7.5 0 2.4 2.3 4 4.3 4 2.6 0 5.9-1.9 8-4.3v-7.2z"/>
	<path class="st0" d="m353.2 0.5v36.1h-3.6v-36.1h3.6z"/>
	<path class="st0" d="m397 0.5v30.4c0 1.9-0.1 3.8 0.2 5.7h-3.3l-0.5-2.5c-1.2 1.6-3.8 3-6.8 3-4.6 0-10.7-3.1-10.7-13.5 0-10.1 6.1-13.5 10.5-13.5 2.5 0 4.8 1.3 6.9 2.9l0.2 0.1v-12.6h3.5zm-3.6 16.3c-1.9-2.2-4.4-3.6-6.6-3.6-4.2 0-7.3 2.8-7.3 10.6 0 6.6 2.8 10.2 7.3 10.2 2.3 0 4-1 6.6-3.5v-13.7z"/>
	<path class="st0" d="m413.9 37.1c-7.1 0-10.7-6-10.7-13.5s3.6-13.5 10.7-13.5 10.7 6 10.7 13.5c-0.1 7.5-3.6 13.5-10.7 13.5zm0-23.9c-4.3 0-7.1 3.7-7.1 10.4s2.8 10.4 7.1 10.4 7.1-3.7 7.1-10.4-2.8-10.4-7.1-10.4z"/>
	<path d="m117.6 86.4l8.2-20.4h10.3l-13.8 30.1v20.4h-9.7v-20.3l-13.8-30.1h10.3l8.5 20.3z"/>
	<path d="m136.6 92.2c0-10.1 5.2-14.4 14-14.4s14 4.3 14 14.4v10.6c0 10.1-5.2 14.4-14 14.4s-14-4.3-14-14.4v-10.6zm8.8 12.9c0 2.9 2.1 4.5 5.2 4.5s5.2-1.5 5.2-4.5v-15.1c0-2.9-2.1-4.5-5.2-4.5s-5.2 1.5-5.2 4.5v15.1z"/>
	<path d="m198.9 78.5v38.1h-8.5v-4.3c-3.2 2.8-6.2 5-9.9 5-5.4 0-8.2-2.7-8.2-9.8v-29h8.8v28c0 2.5 0.8 4.2 3.2 4.2 1.8 0 3.9-1.8 5.7-3.4v-28.8h8.9z"/>
	<path d="m203.5 87.3v-7.1h3.5v-10.4h8.8v10.4h5.7v7.1h-5.7v19.5c0 1.9 1.6 2.8 4 2.8 0.6 0 1.2 0 1.8-0.1v7.4c-1.7 0.3-3.4 0.4-5 0.4-5.7 0-9.5-2.1-9.5-7.6v-22.4h-3.6z"/>
	<path d="m253.3 78.5v38.1h-8.5v-4.3c-3.2 2.8-6.2 5-9.9 5-5.4 0-8.2-2.7-8.2-9.8v-29h8.8v28c0 2.5 0.8 4.2 3.2 4.2 1.8 0 3.8-1.8 5.7-3.4v-28.8h8.9z"/>
	<path d="m261.7 116.6v-50.5h8.8v16c4.2-3.1 6.4-4.2 8.8-4.2 6.9 0 9.7 5.3 9.7 15.1v9.2c0 9.8-2.8 15.1-9.7 15.1-3.9 0-7.8-2.9-9.4-5.3h-0.1v4.6h-8.1zm8.8-8.6c1.8 1.9 3.4 2.7 5.3 2.7 2.4 0 4.3-1.5 4.3-9.1v-8.1c0-7.6-2-9.1-4.3-9.1-2 0-3.6 0.8-5.3 2.7v20.9z"/>
	<path d="m304.8 99.7v5c0 3.8 2.2 5.5 5.2 5.5 3.7 0 5.2-2.4 5.2-5.3h8.8c-0.4 7.8-5.1 12.5-14 12.5-8.4 0-14-5.2-14-13.5v-12.6c0-8.3 5.6-13.5 14-13.5 8.2 0 14 5.2 14 13v8.9h-19.2zm10.4-7.2v-2.1c0-3.4-1.6-5.5-5.2-5.5s-5.2 2.1-5.2 5.5v2.1h10.4z"/>
</svg>
